<svg xmlns="http://www.w3.org/2000/svg" width="828.2352294921875" height="832.9193115234375" viewBox="-336.7003479003906 -545.3590698242188 828.2352294921875 832.9193115234375"><title>Neo4j Graph Visualization</title><desc>Created using Neo4j (http://www.neo4j.com/)</desc><g class="layer relationships"><g class="relationship" transform="translate(129.22879821700462 -227.73156908508722) rotate(224.20459687032337)"><path class="b-outline" fill="#A5ABB6" stroke="none" d="M 25 0.5 L 52.26428470544556 0.5 L 52.26428470544556 -0.5 L 25 -0.5 Z M 96.93225345544556 0.5 L 124.19653816089112 0.5 L 124.19653816089112 3.5 L 131.19653816089112 0 L 124.19653816089112 -3.5 L 124.19653816089112 -0.5 L 96.93225345544556 -0.5 Z"/><text text-anchor="middle" pointer-events="none" font-size="8px" fill="#000000" x="74.59826908044556" y="3" transform="rotate(180 74.59826908044556 0)" font-family="Helvetica Neue, Helvetica, Arial, sans-serif">MODIFIES</text></g><g class="relationship" transform="translate(129.22879821700462 -227.73156908508722) rotate(451.1346694690696)"><path class="b-outline" fill="#A5ABB6" stroke="none" d="M 25 0.5 L 39.067238655739885 0.5 L 39.067238655739885 -0.5 L 25 -0.5 Z M 83.73520740573989 0.5 L 97.80244606147977 0.5 L 97.80244606147977 3.5 L 104.80244606147977 0 L 97.80244606147977 -3.5 L 97.80244606147977 -0.5 L 83.73520740573989 -0.5 Z"/><text text-anchor="middle" pointer-events="none" font-size="8px" fill="#000000" x="61.401223030739885" y="3" transform="rotate(180 61.401223030739885 0)" font-family="Helvetica Neue, Helvetica, Arial, sans-serif">MODIFIES</text></g><g class="relationship" transform="translate(242.53983939610853 -59.97912325022448) rotate(348.2083101679773)"><path class="b-outline" fill="#A5ABB6" stroke="none" d="M 25 0.5 L 50.21623136514134 0.5 L 50.21623136514134 -0.5 L 25 -0.5 Z M 94.88420011514134 0.5 L 120.10043148028268 0.5 L 120.10043148028268 3.5 L 127.10043148028268 0 L 120.10043148028268 -3.5 L 120.10043148028268 -0.5 L 94.88420011514134 -0.5 Z"/><text text-anchor="middle" pointer-events="none" font-size="8px" fill="#000000" x="72.55021574014134" y="3" font-family="Helvetica Neue, Helvetica, Arial, sans-serif">MODIFIES</text></g><g class="relationship" transform="translate(242.53983939610853 -59.97912325022448) rotate(385.7897883286972)"><path class="b-outline" fill="#A5ABB6" stroke="none" d="M 25 0.5 L 52.423357323145765 0.5 L 52.423357323145765 -0.5 L 25 -0.5 Z M 97.09132607314577 0.5 L 124.51468339629153 0.5 L 124.51468339629153 3.5 L 131.51468339629153 0 L 124.51468339629153 -3.5 L 124.51468339629153 -0.5 L 97.09132607314577 -0.5 Z"/><text text-anchor="middle" pointer-events="none" font-size="8px" fill="#000000" x="74.75734169814577" y="3" font-family="Helvetica Neue, Helvetica, Arial, sans-serif">MODIFIES</text></g><g class="relationship" transform="translate(242.53983939610853 -59.97912325022448) rotate(422.701738865578)"><path class="b-outline" fill="#A5ABB6" stroke="none" d="M 25 0.5 L 53.07350910390008 0.5 L 53.07350910390008 -0.5 L 25 -0.5 Z M 97.74147785390008 0.5 L 125.81498695780016 0.5 L 125.81498695780016 3.5 L 132.81498695780016 0 L 125.81498695780016 -3.5 L 125.81498695780016 -0.5 L 97.74147785390008 -0.5 Z"/><text text-anchor="middle" pointer-events="none" font-size="8px" fill="#000000" x="75.40749347890008" y="3" font-family="Helvetica Neue, Helvetica, Arial, sans-serif">MODIFIES</text></g><g class="relationship" transform="translate(242.53983939610853 -59.97912325022448) rotate(474.6542862312481)"><path class="b-outline" fill="#A5ABB6" stroke="none" d="M 25 0.5 L 49.10503206917157 0.5 L 49.10503206917157 -0.5 L 25 -0.5 Z M 93.77300081917157 0.5 L 117.87803288834314 0.5 L 117.87803288834314 3.5 L 124.87803288834314 0 L 117.87803288834314 -3.5 L 117.87803288834314 -0.5 L 93.77300081917157 -0.5 Z"/><text text-anchor="middle" pointer-events="none" font-size="8px" fill="#000000" x="71.43901644417157" y="3" transform="rotate(180 71.43901644417157 0)" font-family="Helvetica Neue, Helvetica, Arial, sans-serif">MODIFIES</text></g><g class="relationship" transform="translate(242.53983939610853 -59.97912325022448) rotate(514.3468756276545)"><path class="b-outline" fill="#A5ABB6" stroke="none" d="M 25 0.5 L 44.470722311559186 0.5 L 44.470722311559186 -0.5 L 25 -0.5 Z M 89.13869106155919 0.5 L 108.60941337311837 0.5 L 108.60941337311837 3.5 L 115.60941337311837 0 L 108.60941337311837 -3.5 L 108.60941337311837 -0.5 L 89.13869106155919 -0.5 Z"/><text text-anchor="middle" pointer-events="none" font-size="8px" fill="#000000" x="66.80470668655919" y="3" transform="rotate(180 66.80470668655919 0)" font-family="Helvetica Neue, Helvetica, Arial, sans-serif">MODIFIES</text></g><g class="relationship" transform="translate(320.72119824600554 -226.15958272391597) rotate(342.3615188383076)"><path class="b-outline" fill="#A5ABB6" stroke="none" d="M 25 0.5 L 48.57083631460442 0.5 L 48.57083631460442 -0.5 L 25 -0.5 Z M 93.23880506460442 0.5 L 116.80964137920884 0.5 L 116.80964137920884 3.5 L 123.80964137920884 0 L 116.80964137920884 -3.5 L 116.80964137920884 -0.5 L 93.23880506460442 -0.5 Z"/><text text-anchor="middle" pointer-events="none" font-size="8px" fill="#000000" x="70.90482068960442" y="3" font-family="Helvetica Neue, Helvetica, Arial, sans-serif">MODIFIES</text></g><g class="relationship" transform="translate(224.08575523129585 -369.596967556267) rotate(267.82821626474794)"><path class="b-outline" fill="#A5ABB6" stroke="none" d="M 25 0.5 L 47.599810231540985 0.5 L 47.599810231540985 -0.5 L 25 -0.5 Z M 92.26777898154099 0.5 L 114.86758921308197 0.5 L 114.86758921308197 3.5 L 121.86758921308197 0 L 114.86758921308197 -3.5 L 114.86758921308197 -0.5 L 92.26777898154099 -0.5 Z"/><text text-anchor="middle" pointer-events="none" font-size="8px" fill="#000000" x="69.93379460654099" y="3" transform="rotate(180 69.93379460654099 0)" font-family="Helvetica Neue, Helvetica, Arial, sans-serif">MODIFIES</text></g><g class="relationship" transform="translate(-59.17946146276689 -199.28638669563423) rotate(299.097006552429)"><path class="b-outline" fill="#A5ABB6" stroke="none" d="M 25 0.5 L 52.759122849203806 0.5 L 52.759122849203806 -0.5 L 25 -0.5 Z M 97.4270915992038 0.5 L 125.18621444840761 0.5 L 125.18621444840761 3.5 L 132.1862144484076 0 L 125.18621444840761 -3.5 L 125.18621444840761 -0.5 L 97.4270915992038 -0.5 Z"/><text text-anchor="middle" pointer-events="none" font-size="8px" fill="#000000" x="75.0931072242038" y="3" font-family="Helvetica Neue, Helvetica, Arial, sans-serif">MODIFIES</text></g><g class="relationship" transform="translate(-59.17946146276689 -199.28638669563423) rotate(424.16846133502406)"><path class="b-outline" fill="#A5ABB6" stroke="none" d="M 25 0.5 L 39.82259364746652 0.5 L 39.82259364746652 -0.5 L 25 -0.5 Z M 84.49056239746652 0.5 L 99.31315604493304 0.5 L 99.31315604493304 3.5 L 106.31315604493304 0 L 99.31315604493304 -3.5 L 99.31315604493304 -0.5 L 84.49056239746652 -0.5 Z"/><text text-anchor="middle" pointer-events="none" font-size="8px" fill="#000000" x="62.15657802246652" y="3" font-family="Helvetica Neue, Helvetica, Arial, sans-serif">MODIFIES</text></g><g class="relationship" transform="translate(-59.17946146276689 -199.28638669563423) rotate(257.71675356137007)"><path class="b-outline" fill="#A5ABB6" stroke="none" d="M 25 0.5 L 51.410112171212106 0.5 L 51.410112171212106 -0.5 L 25 -0.5 Z M 96.0780809212121 0.5 L 122.48819309242421 0.5 L 122.48819309242421 3.5 L 129.4881930924242 0 L 122.48819309242421 -3.5 L 122.48819309242421 -0.5 L 96.0780809212121 -0.5 Z"/><text text-anchor="middle" pointer-events="none" font-size="8px" fill="#000000" x="73.7440965462121" y="3" transform="rotate(180 73.7440965462121 0)" font-family="Helvetica Neue, Helvetica, Arial, sans-serif">MODIFIES</text></g><g class="relationship" transform="translate(-59.17946146276689 -199.28638669563423) rotate(388.60231060337185)"><path class="b-outline" fill="#A5ABB6" stroke="none" d="M 25 0.5 L 80.00060932740693 0.5 L 80.00060932740693 -0.5 L 25 -0.5 Z M 124.66857807740693 0.5 L 179.66918740481387 0.5 L 179.66918740481387 3.5 L 186.66918740481387 0 L 179.66918740481387 -3.5 L 179.66918740481387 -0.5 L 124.66857807740693 -0.5 Z"/><text text-anchor="middle" pointer-events="none" font-size="8px" fill="#000000" x="102.33459370240693" y="3" font-family="Helvetica Neue, Helvetica, Arial, sans-serif">MODIFIES</text></g><g class="relationship" transform="translate(-59.17946146276689 -199.28638669563423) rotate(220.61836783330915)"><path class="b-outline" fill="#A5ABB6" stroke="none" d="M 25 0.5 L 53.06372190466878 0.5 L 53.06372190466878 -0.5 L 25 -0.5 Z M 97.73169065466878 0.5 L 125.79541255933756 0.5 L 125.79541255933756 3.5 L 132.79541255933756 0 L 125.79541255933756 -3.5 L 125.79541255933756 -0.5 L 97.73169065466878 -0.5 Z"/><text text-anchor="middle" pointer-events="none" font-size="8px" fill="#000000" x="75.39770627966878" y="3" transform="rotate(180 75.39770627966878 0)" font-family="Helvetica Neue, Helvetica, Arial, sans-serif">MODIFIES</text></g><g class="relationship" transform="translate(-59.17946146276689 -199.28638669563423) rotate(471.33747710638045)"><path class="b-outline" fill="#A5ABB6" stroke="none" d="M 25 0.5 L 44.1443308035704 0.5 L 44.1443308035704 -0.5 L 25 -0.5 Z M 88.8122995535704 0.5 L 107.9566303571408 0.5 L 107.9566303571408 3.5 L 114.9566303571408 0 L 107.9566303571408 -3.5 L 107.9566303571408 -0.5 L 88.8122995535704 -0.5 Z"/><text text-anchor="middle" pointer-events="none" font-size="8px" fill="#000000" x="66.4783151785704" y="3" transform="rotate(180 66.4783151785704 0)" font-family="Helvetica Neue, Helvetica, Arial, sans-serif">MODIFIES</text></g><g class="relationship" transform="translate(-59.17946146276689 -199.28638669563423) rotate(183.61415542845987)"><path class="b-outline" fill="#A5ABB6" stroke="none" d="M 25 0.5 L 52.0124576492006 0.5 L 52.0124576492006 -0.5 L 25 -0.5 Z M 96.6804263992006 0.5 L 123.6928840484012 0.5 L 123.6928840484012 3.5 L 130.6928840484012 0 L 123.6928840484012 -3.5 L 123.6928840484012 -0.5 L 96.6804263992006 -0.5 Z"/><text text-anchor="middle" pointer-events="none" font-size="8px" fill="#000000" x="74.3464420242006" y="3" transform="rotate(180 74.3464420242006 0)" font-family="Helvetica Neue, Helvetica, Arial, sans-serif">MODIFIES</text></g><g class="relationship" transform="translate(-59.17946146276689 -199.28638669563423) rotate(508.3565872032896)"><path class="b-outline" fill="#A5ABB6" stroke="none" d="M 25 0.5 L 120.1264500435052 0.5 L 120.1264500435052 -0.5 L 25 -0.5 Z M 164.7944187935052 0.5 L 259.9208688370104 0.5 L 259.9208688370104 3.5 L 266.9208688370104 0 L 259.9208688370104 -3.5 L 259.9208688370104 -0.5 L 164.7944187935052 -0.5 Z"/><text text-anchor="middle" pointer-events="none" font-size="8px" fill="#000000" x="142.4604344185052" y="3" transform="rotate(180 142.4604344185052 0)" font-family="Helvetica Neue, Helvetica, Arial, sans-serif">MODIFIES</text></g><g class="relationship" transform="translate(-59.17946146276689 -199.28638669563423) rotate(497.58451766775306)"><path class="b-outline" fill="#A5ABB6" stroke="none" d="M 25 0.5 L 73.75175013517509 0.5 L 73.75175013517509 -0.5 L 25 -0.5 Z M 118.41971888517509 0.5 L 167.17146902035017 0.5 L 167.17146902035017 3.5 L 174.17146902035017 0 L 167.17146902035017 -3.5 L 167.17146902035017 -0.5 L 118.41971888517509 -0.5 Z"/><text text-anchor="middle" pointer-events="none" font-size="8px" fill="#000000" x="96.08573451017509" y="3" transform="rotate(180 96.08573451017509 0)" font-family="Helvetica Neue, Helvetica, Arial, sans-serif">MODIFIES</text></g><g class="relationship" transform="translate(-11.369497048529796 54.973483025374456) rotate(396.8250437745217)"><path class="b-outline" fill="#A5ABB6" stroke="none" d="M 25 0.5 L 50.62187048273813 0.5 L 50.62187048273813 -0.5 L 25 -0.5 Z M 95.28983923273813 0.5 L 120.91170971547626 0.5 L 120.91170971547626 3.5 L 127.91170971547626 0 L 120.91170971547626 -3.5 L 120.91170971547626 -0.5 L 95.28983923273813 -0.5 Z"/><text text-anchor="middle" pointer-events="none" font-size="8px" fill="#000000" x="72.95585485773813" y="3" font-family="Helvetica Neue, Helvetica, Arial, sans-serif">MODIFIES</text></g><g class="relationship" transform="translate(-11.369497048529796 54.973483025374456) rotate(519.6157644986267)"><path class="b-outline" fill="#A5ABB6" stroke="none" d="M 25 0.5 L 60.93584137592535 0.5 L 60.93584137592535 -0.5 L 25 -0.5 Z M 105.60381012592535 0.5 L 141.5396515018507 0.5 L 141.5396515018507 3.5 L 148.5396515018507 0 L 141.5396515018507 -3.5 L 141.5396515018507 -0.5 L 105.60381012592535 -0.5 Z"/><text text-anchor="middle" pointer-events="none" font-size="8px" fill="#000000" x="83.26982575092535" y="3" transform="rotate(180 83.26982575092535 0)" font-family="Helvetica Neue, Helvetica, Arial, sans-serif">MODIFIES</text></g><g class="relationship" transform="translate(-11.369497048529796 54.973483025374456) rotate(194.07205174387718)"><path class="b-outline" fill="#A5ABB6" stroke="none" d="M 25 0.5 L 48.4091746323859 0.5 L 48.4091746323859 -0.5 L 25 -0.5 Z M 93.0771433823859 0.5 L 116.4863180147718 0.5 L 116.4863180147718 3.5 L 123.4863180147718 0 L 116.4863180147718 -3.5 L 116.4863180147718 -0.5 L 93.0771433823859 -0.5 Z"/><text text-anchor="middle" pointer-events="none" font-size="8px" fill="#000000" x="70.7431590073859" y="3" transform="rotate(180 70.7431590073859 0)" font-family="Helvetica Neue, Helvetica, Arial, sans-serif">MODIFIES</text></g><g class="relationship" transform="translate(-11.369497048529796 54.973483025374456) rotate(429.9580301466215)"><path class="b-outline" fill="#A5ABB6" stroke="none" d="M 25 0.5 L 64.21502530451443 0.5 L 64.21502530451443 -0.5 L 25 -0.5 Z M 108.88299405451443 0.5 L 148.09801935902885 0.5 L 148.09801935902885 3.5 L 155.09801935902885 0 L 148.09801935902885 -3.5 L 148.09801935902885 -0.5 L 108.88299405451443 -0.5 Z"/><text text-anchor="middle" pointer-events="none" font-size="8px" fill="#000000" x="86.54900967951443" y="3" font-family="Helvetica Neue, Helvetica, Arial, sans-serif">MODIFIES</text></g><g class="relationship" transform="translate(-11.369497048529796 54.973483025374456) rotate(487.6087265167576)"><path class="b-outline" fill="#A5ABB6" stroke="none" d="M 25 0.5 L 63.912809897400805 0.5 L 63.912809897400805 -0.5 L 25 -0.5 Z M 108.5807786474008 0.5 L 147.4935885448016 0.5 L 147.4935885448016 3.5 L 154.4935885448016 0 L 147.4935885448016 -3.5 L 147.4935885448016 -0.5 L 108.5807786474008 -0.5 Z"/><text text-anchor="middle" pointer-events="none" font-size="8px" fill="#000000" x="86.2467942724008" y="3" transform="rotate(180 86.2467942724008 0)" font-family="Helvetica Neue, Helvetica, Arial, sans-serif">MODIFIES</text></g><g class="relationship" transform="translate(-11.369497048529796 54.973483025374456) rotate(458.5073639809264)"><path class="b-outline" fill="#A5ABB6" stroke="none" d="M 25 0.5 L 29.431960309701978 0.5 L 29.431960309701978 -0.5 L 25 -0.5 Z M 74.09992905970198 0.5 L 78.53188936940396 0.5 L 78.53188936940396 3.5 L 85.53188936940396 0 L 78.53188936940396 -3.5 L 78.53188936940396 -0.5 L 74.09992905970198 -0.5 Z"/><text text-anchor="middle" pointer-events="none" font-size="8px" fill="#000000" x="51.76594468470198" y="3" transform="rotate(180 51.76594468470198 0)" font-family="Helvetica Neue, Helvetica, Arial, sans-serif">MODIFIES</text></g><g class="relationship" transform="translate(-11.369497048529796 54.973483025374456) rotate(458.7210485692084)"><path class="b-outline" fill="#A5ABB6" stroke="none" d="M 25 0.5 L 77.15008367661788 0.5 L 77.15008367661788 -0.5 L 25 -0.5 Z M 121.81805242661788 0.5 L 173.96813610323576 0.5 L 173.96813610323576 3.5 L 180.96813610323576 0 L 173.96813610323576 -3.5 L 173.96813610323576 -0.5 L 121.81805242661788 -0.5 Z"/><text text-anchor="middle" pointer-events="none" font-size="8px" fill="#000000" x="99.48406805161788" y="3" transform="rotate(180 99.48406805161788 0)" font-family="Helvetica Neue, Helvetica, Arial, sans-serif">MODIFIES</text></g><g class="relationship" transform="translate(242.53983939610853 -59.97912325022448) rotate(235.96231905075769)"><path class="b-outline" fill="#A5ABB6" stroke="none" d="M 25 0.5 L 89.38589593766663 0.5 L 89.38589593766663 -0.5 L 25 -0.5 Z M 106.04995843766663 0.5 L 170.43585437533326 0.5 L 170.43585437533326 3.5 L 177.43585437533326 0 L 170.43585437533326 -3.5 L 170.43585437533326 -0.5 L 106.04995843766663 -0.5 Z"/><text text-anchor="middle" pointer-events="none" font-size="8px" fill="#000000" x="97.71792718766663" y="3" transform="rotate(180 97.71792718766663 0)" font-family="Helvetica Neue, Helvetica, Arial, sans-serif">DF</text></g><g class="relationship" transform="translate(320.72119824600554 -226.15958272391597) rotate(475.1951363006491)"><path class="b-outline" fill="#A5ABB6" stroke="none" d="M 25 0.5 L 79.99425853471196 0.5 L 79.99425853471196 -0.5 L 25 -0.5 Z M 96.65832103471196 0.5 L 151.65257956942392 0.5 L 151.65257956942392 3.5 L 158.65257956942392 0 L 151.65257956942392 -3.5 L 151.65257956942392 -0.5 L 96.65832103471196 -0.5 Z"/><text text-anchor="middle" pointer-events="none" font-size="8px" fill="#000000" x="88.32628978471196" y="3" transform="rotate(180 88.32628978471196 0)" font-family="Helvetica Neue, Helvetica, Arial, sans-serif">DF</text></g><g class="relationship" transform="translate(224.08575523129585 -369.596967556267) rotate(416.0313902781586)"><path class="b-outline" fill="#A5ABB6" stroke="none" d="M 25 0.5 L 74.64439937446721 0.5 L 74.64439937446721 -0.5 L 25 -0.5 Z M 91.30846187446721 0.5 L 140.95286124893443 0.5 L 140.95286124893443 3.5 L 147.95286124893443 0 L 140.95286124893443 -3.5 L 140.95286124893443 -0.5 L 91.30846187446721 -0.5 Z"/><text text-anchor="middle" pointer-events="none" font-size="8px" fill="#000000" x="82.97643062446721" y="3" font-family="Helvetica Neue, Helvetica, Arial, sans-serif">DF</text></g><g class="relationship" transform="translate(-59.17946146276689 -199.28638669563423) rotate(351.4145351430851)"><path class="b-outline" fill="#A5ABB6" stroke="none" d="M 25 0.5 L 77.88304574981437 0.5 L 77.88304574981437 -0.5 L 25 -0.5 Z M 105.66038949981437 0.5 L 158.54343524962874 0.5 L 158.54343524962874 3.5 L 165.54343524962874 0 L 158.54343524962874 -3.5 L 158.54343524962874 -0.5 L 105.66038949981437 -0.5 Z"/><text text-anchor="middle" pointer-events="none" font-size="8px" fill="#000000" x="91.77171762481437" y="3" font-family="Helvetica Neue, Helvetica, Arial, sans-serif">DF_M</text></g><g class="relationship" transform="translate(-59.17946146276689 -199.28638669563423) rotate(328.98400176931665)"><path class="b-outline" fill="#A5ABB6" stroke="none" d="M 25 0.5 L 153.42903263213503 0.5 L 153.42903263213503 -0.5 L 25 -0.5 Z M 170.09309513213503 0.5 L 298.52212776427007 0.5 L 298.52212776427007 3.5 L 305.52212776427007 0 L 298.52212776427007 -3.5 L 298.52212776427007 -0.5 L 170.09309513213503 -0.5 Z"/><text text-anchor="middle" pointer-events="none" font-size="8px" fill="#000000" x="161.76106388213503" y="3" font-family="Helvetica Neue, Helvetica, Arial, sans-serif">DF</text></g><g class="relationship" transform="translate(-11.369497048529796 54.973483025374456) rotate(336.9604217426637)"><path class="b-outline" fill="#A5ABB6" stroke="none" d="M 25 0.5 L 43.256855493583515 0.5 L 43.256855493583515 -0.5 L 25 -0.5 Z M 87.92482424358352 0.5 L 106.18167973716703 0.5 L 106.18167973716703 3.5 L 113.18167973716703 0 L 106.18167973716703 -3.5 L 106.18167973716703 -0.5 L 87.92482424358352 -0.5 Z"/><text text-anchor="middle" pointer-events="none" font-size="8px" fill="#000000" x="65.59083986858352" y="3" font-family="Helvetica Neue, Helvetica, Arial, sans-serif">MODIFIES</text></g><g class="relationship" transform="translate(-11.369497048529796 54.973483025374456) rotate(231.4482868877859)"><path class="b-outline" fill="#A5ABB6" stroke="none" d="M 25 0.5 L 53.379252589766836 0.5 L 53.379252589766836 -0.5 L 25 -0.5 Z M 98.04722133976684 0.5 L 126.42647392953367 0.5 L 126.42647392953367 3.5 L 133.42647392953367 0 L 126.42647392953367 -3.5 L 126.42647392953367 -0.5 L 98.04722133976684 -0.5 Z"/><text text-anchor="middle" pointer-events="none" font-size="8px" fill="#000000" x="75.71323696476684" y="3" transform="rotate(180 75.71323696476684 0)" font-family="Helvetica Neue, Helvetica, Arial, sans-serif">MODIFIES</text></g><g class="relationship" transform="translate(-11.369497048529796 54.973483025374456) rotate(211.60939081831555)"><path class="b-outline" fill="#A5ABB6" stroke="none" d="M 25 0.5 L 88.56450861252318 0.5 L 88.56450861252318 -0.5 L 25 -0.5 Z M 133.23247736252318 0.5 L 196.79698597504637 0.5 L 196.79698597504637 3.5 L 203.79698597504637 0 L 196.79698597504637 -3.5 L 196.79698597504637 -0.5 L 133.23247736252318 -0.5 Z"/><text text-anchor="middle" pointer-events="none" font-size="8px" fill="#000000" x="110.89849298752318" y="3" transform="rotate(180 110.89849298752318 0)" font-family="Helvetica Neue, Helvetica, Arial, sans-serif">MODIFIES</text></g><g class="relationship" transform="translate(-11.369497048529796 54.973483025374456) rotate(312.0683826611754)"><path class="b-outline" fill="#A5ABB6" stroke="none" d="M 25 0.5 L 77.1692803249011 0.5 L 77.1692803249011 -0.5 L 25 -0.5 Z M 121.8372490749011 0.5 L 174.0065293998022 0.5 L 174.0065293998022 3.5 L 181.0065293998022 0 L 174.0065293998022 -3.5 L 174.0065293998022 -0.5 L 121.8372490749011 -0.5 Z"/><text text-anchor="middle" pointer-events="none" font-size="8px" fill="#000000" x="99.5032646999011" y="3" font-family="Helvetica Neue, Helvetica, Arial, sans-serif">MODIFIES</text></g><g class="relationship" transform="translate(-11.369497048529796 54.973483025374456) rotate(366.33939459461783)"><path class="b-outline" fill="#A5ABB6" stroke="none" d="M 25 0.5 L 70.44921213019283 0.5 L 70.44921213019283 -0.5 L 25 -0.5 Z M 115.11718088019283 0.5 L 160.56639301038567 0.5 L 160.56639301038567 3.5 L 167.56639301038567 0 L 160.56639301038567 -3.5 L 160.56639301038567 -0.5 L 115.11718088019283 -0.5 Z"/><text text-anchor="middle" pointer-events="none" font-size="8px" fill="#000000" x="92.78319650519283" y="3" font-family="Helvetica Neue, Helvetica, Arial, sans-serif">MODIFIES</text></g><g class="relationship" transform="translate(-11.369497048529796 54.973483025374456) rotate(273.9546982629487)"><path class="b-outline" fill="#A5ABB6" stroke="none" d="M 25 0.5 L 42.36222192717261 0.5 L 42.36222192717261 -0.5 L 25 -0.5 Z M 87.03019067717261 0.5 L 104.39241260434522 0.5 L 104.39241260434522 3.5 L 111.39241260434522 0 L 104.39241260434522 -3.5 L 104.39241260434522 -0.5 L 87.03019067717261 -0.5 Z"/><text text-anchor="middle" pointer-events="none" font-size="8px" fill="#000000" x="64.69620630217261" y="3" font-family="Helvetica Neue, Helvetica, Arial, sans-serif">MODIFIES</text></g><g class="relationship" transform="translate(-11.369497048529796 54.973483025374456) rotate(259.3506897422699)"><path class="b-outline" fill="#A5ABB6" stroke="none" d="M 24.018736134675446,6.953439040707552 L 24.277555179777966,5.987513214418485 A 403.01994389523185 403.01994389523185 0 0 0 117.51613601626157,19.568004778166028 L 117.48866676475815,20.567627427080026 A 404.01994389523185 404.01994389523185 0 0 1 24.018736134675446,6.953439040707552 Z M 134.17180357563885,20.681480457095176 L 134.1579799725123,19.681576007661818 A 403.01994389523185 403.01994389523185 0 0 0 227.57322623013673,7.374891883095716 L 226.83639097783575,4.466787034407046 L 234.4816100857938,6.140293769174874 L 228.55567323320471,11.25236501468061 L 227.81883798090374,8.34426016599194 A 404.01994389523185 404.01994389523185 0 0 1 134.17180357563885,20.681480457095176"/><text text-anchor="middle" pointer-events="none" font-size="8px" fill="#000000" x="125.83305956875284" y="23.210688562446705" transform="rotate(180 125.83305956875284 20.210688562446705)" font-family="Helvetica Neue, Helvetica, Arial, sans-serif">DF</text></g><g class="relationship" transform="translate(-11.369497048529796 54.973483025374456) rotate(335.6422672344993)"><path class="b-outline" fill="#A5ABB6" stroke="none" d="M 25 0.5 L 121.9706234942984 0.5 L 121.9706234942984 -0.5 L 25 -0.5 Z M 149.7479672442984 0.5 L 246.7185907385968 0.5 L 246.7185907385968 3.5 L 253.7185907385968 0 L 246.7185907385968 -3.5 L 246.7185907385968 -0.5 L 149.7479672442984 -0.5 Z"/><text text-anchor="middle" pointer-events="none" font-size="8px" fill="#000000" x="135.8592953692984" y="3" font-family="Helvetica Neue, Helvetica, Arial, sans-serif">DF_M</text></g><g class="relationship" transform="translate(-11.369497048529796 54.973483025374456) rotate(259.3506897422699)"><path class="b-outline" fill="#A5ABB6" stroke="none" d="M 24.018736134675446,-6.953439040707552 L 24.277555179777966,-5.987513214418485 A 403.01994389523185 403.01994389523185 0 0 1 111.9696997541543,-19.37736574958717 L 111.92846831458522,-20.376515372211884 A 404.01994389523185 404.01994389523185 0 0 0 24.018736134675446,-6.953439040707552 Z M 139.73409248341972,-20.566273125742896 L 139.70650151808286,-19.56665382889446 A 403.01994389523185 403.01994389523185 0 0 1 227.57322623013673,-7.374891883095716 L 226.83639097783575,-4.466787034407046 L 234.4816100857938,-6.140293769174874 L 228.55567323320471,-11.25236501468061 L 227.81883798090374,-8.34426016599194 A 404.01994389523185 404.01994389523185 0 0 0 139.73409248341972,-20.566273125742896"/><text text-anchor="middle" pointer-events="none" font-size="8px" fill="#000000" x="125.83305956875273" y="-17.210688562446705" transform="rotate(180 125.83305956875273 -20.210688562446705)" font-family="Helvetica Neue, Helvetica, Arial, sans-serif">DF_M</text></g></g><g class="layer nodes"><g class="node" aria-label="graph-node0" transform="translate(129.22879821700462,-227.73156908508722)"><circle class="b-outline" cx="0" cy="0" r="25" fill="#DA7194" stroke="#cc3c6c" stroke-width="2px"/><text class="caption" text-anchor="middle" pointer-events="none" x="0" y="5" font-size="10px" fill="#FFFFFF" font-family="Helvetica Neue, Helvetica, Arial, sans-serif"> c4a3616…</text></g><g class="node" aria-label="graph-node8205" transform="translate(17.258580176305337,-336.6353284571354)"><circle class="b-outline" cx="0" cy="0" r="25" fill="#D9C8AE" stroke="#c0a378" stroke-width="2px"/><text class="caption" text-anchor="middle" pointer-events="none" x="0" y="5" font-size="10px" fill="#2A2C34" font-family="Helvetica Neue, Helvetica, Arial, sans-serif"> src/vs/e…</text></g><g class="node" aria-label="graph-node8206" transform="translate(126.65839518000371,-97.95457562410914)"><circle class="b-outline" cx="0" cy="0" r="25" fill="#D9C8AE" stroke="#c0a378" stroke-width="2px"/><text class="caption" text-anchor="middle" pointer-events="none" x="0" y="5" font-size="10px" fill="#2A2C34" font-family="Helvetica Neue, Helvetica, Arial, sans-serif"> src/vs/e…</text></g><g class="node" aria-label="graph-node1" transform="translate(242.53983939610853,-59.97912325022448)"><circle class="b-outline" cx="0" cy="0" r="25" fill="#DA7194" stroke="#cc3c6c" stroke-width="2px"/><text class="caption" text-anchor="middle" pointer-events="none" x="0" y="5" font-size="10px" fill="#FFFFFF" font-family="Helvetica Neue, Helvetica, Arial, sans-serif"> 53e7651…</text></g><g class="node" aria-label="graph-node8207" transform="translate(391.4305013313738,-91.06146622765644)"><circle class="b-outline" cx="0" cy="0" r="25" fill="#D9C8AE" stroke="#c0a378" stroke-width="2px"/><text class="caption" text-anchor="middle" pointer-events="none" x="0" y="5" font-size="10px" fill="#2A2C34" font-family="Helvetica Neue, Helvetica, Arial, sans-serif"> .yarnrc</text></g><g class="node" aria-label="graph-node8208" transform="translate(383.4650854727816,8.115818829716542)"><circle class="b-outline" cx="0" cy="0" r="25" fill="#D9C8AE" stroke="#c0a378" stroke-width="2px"/><text class="caption" text-anchor="middle" pointer-events="none" x="0" y="5" font-size="10px" fill="#2A2C34" font-family="Helvetica Neue, Helvetica, Arial, sans-serif"> build/ch…</text></g><g class="node" aria-label="graph-node8209" transform="translate(314.9173567755297,80.26019037645518)"><circle class="b-outline" cx="0" cy="0" r="25" fill="#D9C8AE" stroke="#c0a378" stroke-width="2px"/><text class="caption" text-anchor="middle" pointer-events="none" x="0" y="5" font-size="10px" fill="#2A2C34" font-family="Helvetica Neue, Helvetica, Arial, sans-serif"> cgmanif…</text></g><g class="node" aria-label="graph-node8210" transform="translate(180.01940465444162,76.23622090083744)"><circle class="b-outline" cx="0" cy="0" r="25" fill="#D9C8AE" stroke="#c0a378" stroke-width="2px"/><text class="caption" text-anchor="middle" pointer-events="none" x="0" y="5" font-size="10px" fill="#2A2C34" font-family="Helvetica Neue, Helvetica, Arial, sans-serif"> package…</text></g><g class="node" aria-label="graph-node8211" transform="translate(115.79008344157448,0.8937483314459567)"><circle class="b-outline" cx="0" cy="0" r="25" fill="#D9C8AE" stroke="#c0a378" stroke-width="2px"/><text class="caption" text-anchor="middle" pointer-events="none" x="0" y="5" font-size="10px" fill="#2A2C34" font-family="Helvetica Neue, Helvetica, Arial, sans-serif"> yarn.lock</text></g><g class="node" aria-label="graph-node2" transform="translate(320.72119824600554,-226.15958272391597)"><circle class="b-outline" cx="0" cy="0" r="25" fill="#DA7194" stroke="#cc3c6c" stroke-width="2px"/><text class="caption" text-anchor="middle" pointer-events="none" x="0" y="5" font-size="10px" fill="#FFFFFF" font-family="Helvetica Neue, Helvetica, Arial, sans-serif"> 2b53df7…</text></g><g class="node" aria-label="graph-node8212" transform="translate(462.53490764889307,-271.2503932378346)"><circle class="b-outline" cx="0" cy="0" r="25" fill="#D9C8AE" stroke="#c0a378" stroke-width="2px"/><text class="caption" text-anchor="middle" pointer-events="none" x="0" y="5" font-size="10px" fill="#2A2C34" font-family="Helvetica Neue, Helvetica, Arial, sans-serif"> src/vs/e…</text></g><g class="node" aria-label="graph-node3" transform="translate(224.08575523129585,-369.596967556267)"><circle class="b-outline" cx="0" cy="0" r="25" fill="#DA7194" stroke="#cc3c6c" stroke-width="2px"/><text class="caption" text-anchor="middle" pointer-events="none" x="0" y="5" font-size="10px" fill="#FFFFFF" font-family="Helvetica Neue, Helvetica, Arial, sans-serif"> 61611e4…</text></g><g class="node" aria-label="graph-node8213" transform="translate(218.52010502513932,-516.359061773559)"><circle class="b-outline" cx="0" cy="0" r="25" fill="#D9C8AE" stroke="#c0a378" stroke-width="2px"/><text class="caption" text-anchor="middle" pointer-events="none" x="0" y="5" font-size="10px" fill="#2A2C34" font-family="Helvetica Neue, Helvetica, Arial, sans-serif"> scripts/pl…</text></g><g class="node" aria-label="graph-node4" transform="translate(-59.17946146276689,-199.28638669563423)"><circle class="b-outline" cx="0" cy="0" r="25" fill="#DA7194" stroke="#cc3c6c" stroke-width="2px"/><text class="caption" text-anchor="middle" pointer-events="none" x="0" y="5" font-size="10px" fill="#FFFFFF" font-family="Helvetica Neue, Helvetica, Arial, sans-serif"> 13c4597…</text></g><g class="node" aria-label="graph-node8214" transform="translate(-1.9628242025500695,-81.09416456949896)"><circle class="b-outline" cx="0" cy="0" r="25" fill="#D9C8AE" stroke="#c0a378" stroke-width="2px"/><text class="caption" text-anchor="middle" pointer-events="none" x="0" y="5" font-size="10px" fill="#2A2C34" font-family="Helvetica Neue, Helvetica, Arial, sans-serif"> src/vs/e…</text></g><g class="node" aria-label="graph-node8215" transform="translate(-92.04600333785899,-350.23800884702075)"><circle class="b-outline" cx="0" cy="0" r="25" fill="#D9C8AE" stroke="#c0a378" stroke-width="2px"/><text class="caption" text-anchor="middle" pointer-events="none" x="0" y="5" font-size="10px" fill="#2A2C34" font-family="Helvetica Neue, Helvetica, Arial, sans-serif"> src/vs/e…</text></g><g class="node" aria-label="graph-node8216" transform="translate(-178.95606447842235,-302.0139759538351)"><circle class="b-outline" cx="0" cy="0" r="25" fill="#D9C8AE" stroke="#c0a378" stroke-width="2px"/><text class="caption" text-anchor="middle" pointer-events="none" x="0" y="5" font-size="10px" fill="#2A2C34" font-family="Helvetica Neue, Helvetica, Arial, sans-serif"> src/vs/e…</text></g><g class="node" aria-label="graph-node8217" transform="translate(-110.10416088986788,-68.9233038493592)"><circle class="b-outline" cx="0" cy="0" r="25" fill="#D9C8AE" stroke="#c0a378" stroke-width="2px"/><text class="caption" text-anchor="middle" pointer-events="none" x="0" y="5" font-size="10px" fill="#2A2C34" font-family="Helvetica Neue, Helvetica, Arial, sans-serif"> src/vs/m…</text></g><g class="node" aria-label="graph-node8218" transform="translate(-214.5627011706415,-209.10081287315853)"><circle class="b-outline" cx="0" cy="0" r="25" fill="#D9C8AE" stroke="#c0a378" stroke-width="2px"/><text class="caption" text-anchor="middle" pointer-events="none" x="0" y="5" font-size="10px" fill="#2A2C34" font-family="Helvetica Neue, Helvetica, Arial, sans-serif"> src/vs/w…</text></g><g class="node" aria-label="graph-node8219" transform="translate(-307.7003576779086,-46.13561847367011)"><circle class="b-outline" cx="0" cy="0" r="25" fill="#D9C8AE" stroke="#c0a378" stroke-width="2px"/><text class="caption" text-anchor="middle" pointer-events="none" x="0" y="5" font-size="10px" fill="#2A2C34" font-family="Helvetica Neue, Helvetica, Arial, sans-serif"> src/vs/w…</text></g><g class="node" aria-label="graph-node8220" transform="translate(-206.22240037273127,-64.94485109161938)"><circle class="b-outline" cx="0" cy="0" r="25" fill="#D9C8AE" stroke="#c0a378" stroke-width="2px"/><text class="caption" text-anchor="middle" pointer-events="none" x="0" y="5" font-size="10px" fill="#2A2C34" font-family="Helvetica Neue, Helvetica, Arial, sans-serif"> src/vs/w…</text></g><g class="node" aria-label="graph-node5" transform="translate(-11.369497048529796,54.973483025374456)"><circle class="b-outline" cx="0" cy="0" r="25" fill="#DA7194" stroke="#cc3c6c" stroke-width="2px"/><text class="caption" text-anchor="middle" pointer-events="none" x="0" y="5" font-size="10px" fill="#FFFFFF" font-family="Helvetica Neue, Helvetica, Arial, sans-serif"> d79974f…</text></g><g class="node" aria-label="graph-node8221" transform="translate(111.03165718323726,146.6247154821246)"><circle class="b-outline" cx="0" cy="0" r="25" fill="#D9C8AE" stroke="#c0a378" stroke-width="2px"/><text class="caption" text-anchor="middle" pointer-events="none" x="0" y="5" font-size="10px" fill="#2A2C34" font-family="Helvetica Neue, Helvetica, Arial, sans-serif"> .vscode/…</text></g><g class="node" aria-label="graph-node8222" transform="translate(-174.04172436590162,115.41979890144012)"><circle class="b-outline" cx="0" cy="0" r="25" fill="#D9C8AE" stroke="#c0a378" stroke-width="2px"/><text class="caption" text-anchor="middle" pointer-events="none" x="0" y="5" font-size="10px" fill="#2A2C34" font-family="Helvetica Neue, Helvetica, Arial, sans-serif"> build/lib/…</text></g><g class="node" aria-label="graph-node8223" transform="translate(-155.39984944669933,18.870239048647854)"><circle class="b-outline" cx="0" cy="0" r="25" fill="#D9C8AE" stroke="#c0a378" stroke-width="2px"/><text class="caption" text-anchor="middle" pointer-events="none" x="0" y="5" font-size="10px" fill="#2A2C34" font-family="Helvetica Neue, Helvetica, Arial, sans-serif"> cli/src/bi…</text></g><g class="node" aria-label="graph-node8224" transform="translate(50.35160480223348,224.16509677550346)"><circle class="b-outline" cx="0" cy="0" r="25" fill="#D9C8AE" stroke="#c0a378" stroke-width="2px"/><text class="caption" text-anchor="middle" pointer-events="none" x="0" y="5" font-size="10px" fill="#2A2C34" font-family="Helvetica Neue, Helvetica, Arial, sans-serif"> cli/src/co…</text></g><g class="node" aria-label="graph-node8225" transform="translate(-120.9083004190867,197.16771246116068)"><circle class="b-outline" cx="0" cy="0" r="25" fill="#D9C8AE" stroke="#c0a378" stroke-width="2px"/><text class="caption" text-anchor="middle" pointer-events="none" x="0" y="5" font-size="10px" fill="#2A2C34" font-family="Helvetica Neue, Helvetica, Arial, sans-serif"> cli/src/co…</text></g><g class="node" aria-label="graph-node8226" transform="translate(-27.721200539469965,164.2891743076169)"><circle class="b-outline" cx="0" cy="0" r="25" fill="#D9C8AE" stroke="#c0a378" stroke-width="2px"/><text class="caption" text-anchor="middle" pointer-events="none" x="0" y="5" font-size="10px" fill="#2A2C34" font-family="Helvetica Neue, Helvetica, Arial, sans-serif"> cli/src/tu…</text></g><g class="node" aria-label="graph-node8227" transform="translate(-42.59919939870656,258.5602674220057)"><circle class="b-outline" cx="0" cy="0" r="25" fill="#D9C8AE" stroke="#c0a378" stroke-width="2px"/><text class="caption" text-anchor="middle" pointer-events="none" x="0" y="5" font-size="10px" fill="#2A2C34" font-family="Helvetica Neue, Helvetica, Arial, sans-serif"> cli/src/tu…</text></g></g></svg>