<svg xmlns="http://www.w3.org/2000/svg" width="977.7015380859375" height="1010.075927734375" viewBox="-480.22686767578125 -478.509765625 977.7015380859375 1010.075927734375"><title>Neo4j Graph Visualization</title><desc>Created using Neo4j (http://www.neo4j.com/)</desc><g class="layer relationships"><g class="relationship" transform="translate(-70.42725366737159 435.7183571155678) rotate(388.0555455080015)"><path class="b-outline" fill="#A5ABB6" stroke="none" d="M 25 0.5 L 59.23309857947447 0.5 L 59.23309857947447 -0.5 L 25 -0.5 Z M 75.89716107947447 0.5 L 110.13025965894894 0.5 L 110.13025965894894 3.5 L 117.13025965894894 0 L 110.13025965894894 -3.5 L 110.13025965894894 -0.5 L 75.89716107947447 -0.5 Z"/><text text-anchor="middle" pointer-events="none" font-size="8px" fill="#000000" x="67.56512982947447" y="3" font-family="Helvetica Neue, Helvetica, Arial, sans-serif">DF</text></g><g class="relationship" transform="translate(55.001570243576076 502.56610085487983) rotate(313.92546040076445)"><path class="b-outline" fill="#A5ABB6" stroke="none" d="M 25 0.5 L 60.288151234869744 0.5 L 60.288151234869744 -0.5 L 25 -0.5 Z M 76.95221373486974 0.5 L 112.24036496973949 0.5 L 112.24036496973949 3.5 L 119.24036496973949 0 L 112.24036496973949 -3.5 L 112.24036496973949 -0.5 L 76.95221373486974 -0.5 Z"/><text text-anchor="middle" pointer-events="none" font-size="8px" fill="#000000" x="68.62018248486974" y="3" font-family="Helvetica Neue, Helvetica, Arial, sans-serif">DF</text></g><g class="relationship" transform="translate(155.06427743174243 398.677999915557) rotate(337.42395474191176)"><path class="b-outline" fill="#A5ABB6" stroke="none" d="M 25 0.5 L 60.142294878798495 0.5 L 60.142294878798495 -0.5 L 25 -0.5 Z M 76.8063573787985 0.5 L 111.94865225759699 0.5 L 111.94865225759699 3.5 L 118.94865225759699 0 L 111.94865225759699 -3.5 L 111.94865225759699 -0.5 L 76.8063573787985 -0.5 Z"/><text text-anchor="middle" pointer-events="none" font-size="8px" fill="#000000" x="68.4743261287985" y="3" font-family="Helvetica Neue, Helvetica, Arial, sans-serif">DF</text></g><g class="relationship" transform="translate(287.98226050569826 343.4147728804827) rotate(249.94156281674475)"><path class="b-outline" fill="#A5ABB6" stroke="none" d="M 25 0.5 L 62.09150198811088 0.5 L 62.09150198811088 -0.5 L 25 -0.5 Z M 78.75556448811088 0.5 L 115.84706647622176 0.5 L 115.84706647622176 3.5 L 122.84706647622176 0 L 115.84706647622176 -3.5 L 115.84706647622176 -0.5 L 78.75556448811088 -0.5 Z"/><text text-anchor="middle" pointer-events="none" font-size="8px" fill="#000000" x="70.42353323811088" y="3" transform="rotate(180 70.42353323811088 0)" font-family="Helvetica Neue, Helvetica, Arial, sans-serif">DF</text></g><g class="relationship" transform="translate(237.27391349151716 204.53562178603755) rotate(354.62843166767095)"><path class="b-outline" fill="#A5ABB6" stroke="none" d="M 25 0.5 L 62.31144166187936 0.5 L 62.31144166187936 -0.5 L 25 -0.5 Z M 78.97550416187936 0.5 L 116.28694582375871 0.5 L 116.28694582375871 3.5 L 123.28694582375871 0 L 116.28694582375871 -3.5 L 116.28694582375871 -0.5 L 78.97550416187936 -0.5 Z"/><text text-anchor="middle" pointer-events="none" font-size="8px" fill="#000000" x="70.64347291187936" y="3" font-family="Helvetica Neue, Helvetica, Arial, sans-serif">DF</text></g><g class="relationship" transform="translate(384.9096632782761 190.65384644425026) rotate(251.11096488841451)"><path class="b-outline" fill="#A5ABB6" stroke="none" d="M 25 0.5 L 61.28318063443386 0.5 L 61.28318063443386 -0.5 L 25 -0.5 Z M 77.94724313443386 0.5 L 114.23042376886772 0.5 L 114.23042376886772 3.5 L 121.23042376886772 0 L 114.23042376886772 -3.5 L 114.23042376886772 -0.5 L 77.94724313443386 -0.5 Z"/><text text-anchor="middle" pointer-events="none" font-size="8px" fill="#000000" x="69.61521188443386" y="3" transform="rotate(180 69.61521188443386 0)" font-family="Helvetica Neue, Helvetica, Arial, sans-serif">DF</text></g><g class="relationship" transform="translate(337.569558649929 52.2983213308679) rotate(333.03148717887166)"><path class="b-outline" fill="#A5ABB6" stroke="none" d="M 25 0.5 L 61.60652163386216 0.5 L 61.60652163386216 -0.5 L 25 -0.5 Z M 78.27058413386216 0.5 L 114.87710576772432 0.5 L 114.87710576772432 3.5 L 121.87710576772432 0 L 114.87710576772432 -3.5 L 114.87710576772432 -0.5 L 78.27058413386216 -0.5 Z"/><text text-anchor="middle" pointer-events="none" font-size="8px" fill="#000000" x="69.93855288386216" y="3" font-family="Helvetica Neue, Helvetica, Arial, sans-serif">DF</text></g><g class="relationship" transform="translate(468.47464314832536 -14.310559842523505) rotate(254.0409959185991)"><path class="b-outline" fill="#A5ABB6" stroke="none" d="M 25 0.5 L 61.33237443526224 0.5 L 61.33237443526224 -0.5 L 25 -0.5 Z M 77.99643693526224 0.5 L 114.32881137052448 0.5 L 114.32881137052448 3.5 L 121.32881137052448 0 L 114.32881137052448 -3.5 L 114.32881137052448 -0.5 L 77.99643693526224 -0.5 Z"/><text text-anchor="middle" pointer-events="none" font-size="8px" fill="#000000" x="69.66440568526224" y="3" transform="rotate(180 69.66440568526224 0)" font-family="Helvetica Neue, Helvetica, Arial, sans-serif">DF</text></g><g class="relationship" transform="translate(428.24161118507254 -154.99966452428063) rotate(190.03458781411996)"><path class="b-outline" fill="#A5ABB6" stroke="none" d="M 25 0.5 L 62.19124732021058 0.5 L 62.19124732021058 -0.5 L 25 -0.5 Z M 78.85530982021058 0.5 L 116.04655714042116 0.5 L 116.04655714042116 3.5 L 123.04655714042116 0 L 116.04655714042116 -3.5 L 116.04655714042116 -0.5 L 78.85530982021058 -0.5 Z"/><text text-anchor="middle" pointer-events="none" font-size="8px" fill="#000000" x="70.52327857021058" y="3" transform="rotate(180 70.52327857021058 0)" font-family="Helvetica Neue, Helvetica, Arial, sans-serif">DF</text></g><g class="relationship" transform="translate(282.45975966028726 -180.79568838722213) rotate(284.1461245506821)"><path class="b-outline" fill="#A5ABB6" stroke="none" d="M 25 0.5 L 62.30784666718675 0.5 L 62.30784666718675 -0.5 L 25 -0.5 Z M 78.97190916718675 0.5 L 116.2797558343735 0.5 L 116.2797558343735 3.5 L 123.2797558343735 0 L 116.2797558343735 -3.5 L 116.2797558343735 -0.5 L 78.97190916718675 -0.5 Z"/><text text-anchor="middle" pointer-events="none" font-size="8px" fill="#000000" x="70.63987791718675" y="3" font-family="Helvetica Neue, Helvetica, Arial, sans-serif">DF</text></g><g class="relationship" transform="translate(318.6986950132456 -324.5789473389705) rotate(215.7561273580527)"><path class="b-outline" fill="#A5ABB6" stroke="none" d="M 25 0.5 L 61.556285185038845 0.5 L 61.556285185038845 -0.5 L 25 -0.5 Z M 78.22034768503885 0.5 L 114.77663287007769 0.5 L 114.77663287007769 3.5 L 121.77663287007769 0 L 114.77663287007769 -3.5 L 114.77663287007769 -0.5 L 78.22034768503885 -0.5 Z"/><text text-anchor="middle" pointer-events="none" font-size="8px" fill="#000000" x="69.88831643503885" y="3" transform="rotate(180 69.88831643503885 0)" font-family="Helvetica Neue, Helvetica, Arial, sans-serif">DF</text></g><g class="relationship" transform="translate(199.58777007122026 -410.345884535846) rotate(503.36423772186134)"><path class="b-outline" fill="#A5ABB6" stroke="none" d="M 25 0.5 L 62.27116707714684 0.5 L 62.27116707714684 -0.5 L 25 -0.5 Z M 78.93522957714684 0.5 L 116.20639665429368 0.5 L 116.20639665429368 3.5 L 123.20639665429368 0 L 116.20639665429368 -3.5 L 116.20639665429368 -0.5 L 78.93522957714684 -0.5 Z"/><text text-anchor="middle" pointer-events="none" font-size="8px" fill="#000000" x="70.60319832714684" y="3" transform="rotate(180 70.60319832714684 0)" font-family="Helvetica Neue, Helvetica, Arial, sans-serif">DF</text></g><g class="relationship" transform="translate(80.66026240180013 -321.9072960758878) rotate(239.7385954926914)"><path class="b-outline" fill="#A5ABB6" stroke="none" d="M 25 0.5 L 62.034635126559564 0.5 L 62.034635126559564 -0.5 L 25 -0.5 Z M 78.69869762655956 0.5 L 115.73333275311913 0.5 L 115.73333275311913 3.5 L 122.73333275311913 0 L 115.73333275311913 -3.5 L 115.73333275311913 -0.5 L 78.69869762655956 -0.5 Z"/><text text-anchor="middle" pointer-events="none" font-size="8px" fill="#000000" x="70.36666637655956" y="3" transform="rotate(180 70.36666637655956 0)" font-family="Helvetica Neue, Helvetica, Arial, sans-serif">DF</text></g><g class="relationship" transform="translate(6.210653554543519 -449.5097778261826) rotate(524.5947524257771)"><path class="b-outline" fill="#A5ABB6" stroke="none" d="M 25 0.5 L 60.63893629452454 0.5 L 60.63893629452454 -0.5 L 25 -0.5 Z M 77.30299879452454 0.5 L 112.94193508904908 0.5 L 112.94193508904908 3.5 L 119.94193508904908 0 L 112.94193508904908 -3.5 L 112.94193508904908 -0.5 L 77.30299879452454 -0.5 Z"/><text text-anchor="middle" pointer-events="none" font-size="8px" fill="#000000" x="68.97096754452454" y="3" transform="rotate(180 68.97096754452454 0)" font-family="Helvetica Neue, Helvetica, Arial, sans-serif">DF</text></g><g class="relationship" transform="translate(-133.5236741387384 -411.0067622109788) rotate(459.62443033339133)"><path class="b-outline" fill="#A5ABB6" stroke="none" d="M 25 0.5 L 62.37595624848913 0.5 L 62.37595624848913 -0.5 L 25 -0.5 Z M 79.04001874848913 0.5 L 116.41597499697826 0.5 L 116.41597499697826 3.5 L 123.41597499697826 0 L 116.41597499697826 -3.5 L 116.41597499697826 -0.5 L 79.04001874848913 -0.5 Z"/><text text-anchor="middle" pointer-events="none" font-size="8px" fill="#000000" x="70.70798749848913" y="3" transform="rotate(180 70.70798749848913 0)" font-family="Helvetica Neue, Helvetica, Arial, sans-serif">DF</text></g><g class="relationship" transform="translate(-158.3372148674806 -264.6797659635101) rotate(205.81029740941807)"><path class="b-outline" fill="#A5ABB6" stroke="none" d="M 25 0.5 L 62.375291252993506 0.5 L 62.375291252993506 -0.5 L 25 -0.5 Z M 79.0393537529935 0.5 L 116.41464500598701 0.5 L 116.41464500598701 3.5 L 123.41464500598701 0 L 116.41464500598701 -3.5 L 116.41464500598701 -0.5 L 79.0393537529935 -0.5 Z"/><text text-anchor="middle" pointer-events="none" font-size="8px" fill="#000000" x="70.7073225029935" y="3" transform="rotate(180 70.7073225029935 0)" font-family="Helvetica Neue, Helvetica, Arial, sans-serif">DF</text></g><g class="relationship" transform="translate(-291.94609436656134 -329.29844879791386) rotate(497.7737759242643)"><path class="b-outline" fill="#A5ABB6" stroke="none" d="M 25 0.5 L 60.993813928029255 0.5 L 60.993813928029255 -0.5 L 25 -0.5 Z M 77.65787642802925 0.5 L 113.65169035605851 0.5 L 113.65169035605851 3.5 L 120.65169035605851 0 L 113.65169035605851 -3.5 L 113.65169035605851 -0.5 L 77.65787642802925 -0.5 Z"/><text text-anchor="middle" pointer-events="none" font-size="8px" fill="#000000" x="69.32584517802925" y="3" transform="rotate(180 69.32584517802925 0)" font-family="Helvetica Neue, Helvetica, Arial, sans-serif">DF</text></g><g class="relationship" transform="translate(-399.8007449805606 -231.4118345725291) rotate(424.87339969315786)"><path class="b-outline" fill="#A5ABB6" stroke="none" d="M 25 0.5 L 61.49993802131341 0.5 L 61.49993802131341 -0.5 L 25 -0.5 Z M 78.16400052131341 0.5 L 114.66393854262682 0.5 L 114.66393854262682 3.5 L 121.66393854262682 0 L 114.66393854262682 -3.5 L 114.66393854262682 -0.5 L 78.16400052131341 -0.5 Z"/><text text-anchor="middle" pointer-events="none" font-size="8px" fill="#000000" x="69.83196927131341" y="3" font-family="Helvetica Neue, Helvetica, Arial, sans-serif">DF</text></g><g class="relationship" transform="translate(-337.5243328695779 -98.62644620687168) rotate(501.20317481245803)"><path class="b-outline" fill="#A5ABB6" stroke="none" d="M 25 0.5 L 61.112866142723306 0.5 L 61.112866142723306 -0.5 L 25 -0.5 Z M 77.7769286427233 0.5 L 113.88979478544661 0.5 L 113.88979478544661 3.5 L 120.88979478544661 0 L 113.88979478544661 -3.5 L 113.88979478544661 -0.5 L 77.7769286427233 -0.5 Z"/><text text-anchor="middle" pointer-events="none" font-size="8px" fill="#000000" x="69.4448973927233" y="3" transform="rotate(180 69.4448973927233 0)" font-family="Helvetica Neue, Helvetica, Arial, sans-serif">DF</text></g><g class="relationship" transform="translate(-451.2268538632245 -7.217644977290499) rotate(448.50244294282936)"><path class="b-outline" fill="#A5ABB6" stroke="none" d="M 25 0.5 L 61.37561921393139 0.5 L 61.37561921393139 -0.5 L 25 -0.5 Z M 78.03968171393139 0.5 L 114.41530092786277 0.5 L 114.41530092786277 3.5 L 121.41530092786277 0 L 114.41530092786277 -3.5 L 114.41530092786277 -0.5 L 78.03968171393139 -0.5 Z"/><text text-anchor="middle" pointer-events="none" font-size="8px" fill="#000000" x="69.70765046393139" y="3" font-family="Helvetica Neue, Helvetica, Arial, sans-serif">DF</text></g><g class="relationship" transform="translate(-447.40038873073405 139.1476463672986) rotate(425.79625465384805)"><path class="b-outline" fill="#A5ABB6" stroke="none" d="M 25 0.5 L 61.76867613590309 0.5 L 61.76867613590309 -0.5 L 25 -0.5 Z M 78.43273863590309 0.5 L 115.20141477180618 0.5 L 115.20141477180618 3.5 L 122.20141477180618 0 L 115.20141477180618 -3.5 L 115.20141477180618 -0.5 L 78.43273863590309 -0.5 Z"/><text text-anchor="middle" pointer-events="none" font-size="8px" fill="#000000" x="70.10070738590309" y="3" font-family="Helvetica Neue, Helvetica, Arial, sans-serif">DF</text></g><g class="relationship" transform="translate(-387.0503615883134 273.4090731984269) rotate(381.8972782065004)"><path class="b-outline" fill="#A5ABB6" stroke="none" d="M 25 0.5 L 61.15624298980491 0.5 L 61.15624298980491 -0.5 L 25 -0.5 Z M 77.82030548980491 0.5 L 113.97654847960982 0.5 L 113.97654847960982 3.5 L 120.97654847960982 0 L 113.97654847960982 -3.5 L 113.97654847960982 -0.5 L 77.82030548980491 -0.5 Z"/><text text-anchor="middle" pointer-events="none" font-size="8px" fill="#000000" x="69.48827423980491" y="3" font-family="Helvetica Neue, Helvetica, Arial, sans-serif">DF</text></g><g class="relationship" transform="translate(-251.60544135609467 327.85010817488353) rotate(310.3395994940555)"><path class="b-outline" fill="#A5ABB6" stroke="none" d="M 25 0.5 L 62.17423708945775 0.5 L 62.17423708945775 -0.5 L 25 -0.5 Z M 78.83829958945775 0.5 L 116.0125366789155 0.5 L 116.0125366789155 3.5 L 123.0125366789155 0 L 116.0125366789155 -3.5 L 116.0125366789155 -0.5 L 78.83829958945775 -0.5 Z"/><text text-anchor="middle" pointer-events="none" font-size="8px" fill="#000000" x="70.50626833945775" y="3" font-family="Helvetica Neue, Helvetica, Arial, sans-serif">DF</text></g><g class="relationship" transform="translate(-155.79444911287453 215.03182605936416) rotate(298.0268028740982)"><path class="b-outline" fill="#A5ABB6" stroke="none" d="M 25 0.5 L 61.610871853832336 0.5 L 61.610871853832336 -0.5 L 25 -0.5 Z M 78.27493435383234 0.5 L 114.88580620766467 0.5 L 114.88580620766467 3.5 L 121.88580620766467 0 L 114.88580620766467 -3.5 L 114.88580620766467 -0.5 L 78.27493435383234 -0.5 Z"/><text text-anchor="middle" pointer-events="none" font-size="8px" fill="#000000" x="69.94290310383234" y="3" font-family="Helvetica Neue, Helvetica, Arial, sans-serif">DF</text></g><g class="relationship" transform="translate(-86.77507773925203 85.37163000650604) rotate(309.0177489152287)"><path class="b-outline" fill="#A5ABB6" stroke="none" d="M 25 0.5 L 59.777712715617156 0.5 L 59.777712715617156 -0.5 L 25 -0.5 Z M 76.44177521561716 0.5 L 111.21948793123431 0.5 L 111.21948793123431 3.5 L 118.21948793123431 0 L 111.21948793123431 -3.5 L 111.21948793123431 -0.5 L 76.44177521561716 -0.5 Z"/><text text-anchor="middle" pointer-events="none" font-size="8px" fill="#000000" x="68.10974396561716" y="3" font-family="Helvetica Neue, Helvetica, Arial, sans-serif">DF</text></g></g><g class="layer nodes"><g class="node" aria-label="graph-node2263" transform="translate(-70.42725366737159,435.7183571155678)"><circle class="b-outline" cx="0" cy="0" r="25" fill="#DA7194" stroke="#cc3c6c" stroke-width="2px"/><text class="caption" text-anchor="middle" pointer-events="none" x="0" y="5" font-size="10px" fill="#FFFFFF" font-family="Helvetica Neue, Helvetica, Arial, sans-serif"> 2b81396…</text></g><g class="node" aria-label="graph-node3231" transform="translate(55.001570243576076,502.56610085487983)"><circle class="b-outline" cx="0" cy="0" r="25" fill="#DA7194" stroke="#cc3c6c" stroke-width="2px"/><text class="caption" text-anchor="middle" pointer-events="none" x="0" y="5" font-size="10px" fill="#FFFFFF" font-family="Helvetica Neue, Helvetica, Arial, sans-serif"> 288368c…</text></g><g class="node" aria-label="graph-node2187" transform="translate(155.06427743174243,398.677999915557)"><circle class="b-outline" cx="0" cy="0" r="25" fill="#DA7194" stroke="#cc3c6c" stroke-width="2px"/><text class="caption" text-anchor="middle" pointer-events="none" x="0" y="5" font-size="10px" fill="#FFFFFF" font-family="Helvetica Neue, Helvetica, Arial, sans-serif"> c80a391…</text></g><g class="node" aria-label="graph-node3247" transform="translate(287.98226050569826,343.4147728804827)"><circle class="b-outline" cx="0" cy="0" r="25" fill="#DA7194" stroke="#cc3c6c" stroke-width="2px"/><text class="caption" text-anchor="middle" pointer-events="none" x="0" y="5" font-size="10px" fill="#FFFFFF" font-family="Helvetica Neue, Helvetica, Arial, sans-serif"> a502d34…</text></g><g class="node" aria-label="graph-node3246" transform="translate(237.27391349151716,204.53562178603755)"><circle class="b-outline" cx="0" cy="0" r="25" fill="#DA7194" stroke="#cc3c6c" stroke-width="2px"/><text class="caption" text-anchor="middle" pointer-events="none" x="0" y="5" font-size="10px" fill="#FFFFFF" font-family="Helvetica Neue, Helvetica, Arial, sans-serif"> 59ce588…</text></g><g class="node" aria-label="graph-node3245" transform="translate(384.9096632782761,190.65384644425026)"><circle class="b-outline" cx="0" cy="0" r="25" fill="#DA7194" stroke="#cc3c6c" stroke-width="2px"/><text class="caption" text-anchor="middle" pointer-events="none" x="0" y="5" font-size="10px" fill="#FFFFFF" font-family="Helvetica Neue, Helvetica, Arial, sans-serif"> c25aa77…</text></g><g class="node" aria-label="graph-node3244" transform="translate(337.569558649929,52.2983213308679)"><circle class="b-outline" cx="0" cy="0" r="25" fill="#DA7194" stroke="#cc3c6c" stroke-width="2px"/><text class="caption" text-anchor="middle" pointer-events="none" x="0" y="5" font-size="10px" fill="#FFFFFF" font-family="Helvetica Neue, Helvetica, Arial, sans-serif"> 03666a0…</text></g><g class="node" aria-label="graph-node3243" transform="translate(468.47464314832536,-14.310559842523505)"><circle class="b-outline" cx="0" cy="0" r="25" fill="#DA7194" stroke="#cc3c6c" stroke-width="2px"/><text class="caption" text-anchor="middle" pointer-events="none" x="0" y="5" font-size="10px" fill="#FFFFFF" font-family="Helvetica Neue, Helvetica, Arial, sans-serif"> b4b2d40…</text></g><g class="node" aria-label="graph-node3242" transform="translate(428.24161118507254,-154.99966452428063)"><circle class="b-outline" cx="0" cy="0" r="25" fill="#DA7194" stroke="#cc3c6c" stroke-width="2px"/><text class="caption" text-anchor="middle" pointer-events="none" x="0" y="5" font-size="10px" fill="#FFFFFF" font-family="Helvetica Neue, Helvetica, Arial, sans-serif"> 6330a7a…</text></g><g class="node" aria-label="graph-node3308" transform="translate(282.45975966028726,-180.79568838722213)"><circle class="b-outline" cx="0" cy="0" r="25" fill="#DA7194" stroke="#cc3c6c" stroke-width="2px"/><text class="caption" text-anchor="middle" pointer-events="none" x="0" y="5" font-size="10px" fill="#FFFFFF" font-family="Helvetica Neue, Helvetica, Arial, sans-serif"> bb3ea73…</text></g><g class="node" aria-label="graph-node3316" transform="translate(318.6986950132456,-324.5789473389705)"><circle class="b-outline" cx="0" cy="0" r="25" fill="#DA7194" stroke="#cc3c6c" stroke-width="2px"/><text class="caption" text-anchor="middle" pointer-events="none" x="0" y="5" font-size="10px" fill="#FFFFFF" font-family="Helvetica Neue, Helvetica, Arial, sans-serif"> 85ca912…</text></g><g class="node" aria-label="graph-node3315" transform="translate(199.58777007122026,-410.345884535846)"><circle class="b-outline" cx="0" cy="0" r="25" fill="#DA7194" stroke="#cc3c6c" stroke-width="2px"/><text class="caption" text-anchor="middle" pointer-events="none" x="0" y="5" font-size="10px" fill="#FFFFFF" font-family="Helvetica Neue, Helvetica, Arial, sans-serif"> 1845b9d…</text></g><g class="node" aria-label="graph-node3314" transform="translate(80.66026240180013,-321.9072960758878)"><circle class="b-outline" cx="0" cy="0" r="25" fill="#DA7194" stroke="#cc3c6c" stroke-width="2px"/><text class="caption" text-anchor="middle" pointer-events="none" x="0" y="5" font-size="10px" fill="#FFFFFF" font-family="Helvetica Neue, Helvetica, Arial, sans-serif"> a910986…</text></g><g class="node" aria-label="graph-node3313" transform="translate(6.210653554543519,-449.5097778261826)"><circle class="b-outline" cx="0" cy="0" r="25" fill="#DA7194" stroke="#cc3c6c" stroke-width="2px"/><text class="caption" text-anchor="middle" pointer-events="none" x="0" y="5" font-size="10px" fill="#FFFFFF" font-family="Helvetica Neue, Helvetica, Arial, sans-serif"> c0e29b7…</text></g><g class="node" aria-label="graph-node3312" transform="translate(-133.5236741387384,-411.0067622109788)"><circle class="b-outline" cx="0" cy="0" r="25" fill="#DA7194" stroke="#cc3c6c" stroke-width="2px"/><text class="caption" text-anchor="middle" pointer-events="none" x="0" y="5" font-size="10px" fill="#FFFFFF" font-family="Helvetica Neue, Helvetica, Arial, sans-serif"> 0767f25…</text></g><g class="node" aria-label="graph-node3311" transform="translate(-158.3372148674806,-264.6797659635101)"><circle class="b-outline" cx="0" cy="0" r="25" fill="#DA7194" stroke="#cc3c6c" stroke-width="2px"/><text class="caption" text-anchor="middle" pointer-events="none" x="0" y="5" font-size="10px" fill="#FFFFFF" font-family="Helvetica Neue, Helvetica, Arial, sans-serif"> e529535…</text></g><g class="node" aria-label="graph-node3310" transform="translate(-291.94609436656134,-329.29844879791386)"><circle class="b-outline" cx="0" cy="0" r="25" fill="#DA7194" stroke="#cc3c6c" stroke-width="2px"/><text class="caption" text-anchor="middle" pointer-events="none" x="0" y="5" font-size="10px" fill="#FFFFFF" font-family="Helvetica Neue, Helvetica, Arial, sans-serif"> 522b60a…</text></g><g class="node" aria-label="graph-node3309" transform="translate(-399.8007449805606,-231.4118345725291)"><circle class="b-outline" cx="0" cy="0" r="25" fill="#DA7194" stroke="#cc3c6c" stroke-width="2px"/><text class="caption" text-anchor="middle" pointer-events="none" x="0" y="5" font-size="10px" fill="#FFFFFF" font-family="Helvetica Neue, Helvetica, Arial, sans-serif"> 5b5320b…</text></g><g class="node" aria-label="graph-node3307" transform="translate(-337.5243328695779,-98.62644620687168)"><circle class="b-outline" cx="0" cy="0" r="25" fill="#DA7194" stroke="#cc3c6c" stroke-width="2px"/><text class="caption" text-anchor="middle" pointer-events="none" x="0" y="5" font-size="10px" fill="#FFFFFF" font-family="Helvetica Neue, Helvetica, Arial, sans-serif"> fa0cd78f…</text></g><g class="node" aria-label="graph-node3306" transform="translate(-451.2268538632245,-7.217644977290499)"><circle class="b-outline" cx="0" cy="0" r="25" fill="#DA7194" stroke="#cc3c6c" stroke-width="2px"/><text class="caption" text-anchor="middle" pointer-events="none" x="0" y="5" font-size="10px" fill="#FFFFFF" font-family="Helvetica Neue, Helvetica, Arial, sans-serif"> 45e308f…</text></g><g class="node" aria-label="graph-node3305" transform="translate(-447.40038873073405,139.1476463672986)"><circle class="b-outline" cx="0" cy="0" r="25" fill="#DA7194" stroke="#cc3c6c" stroke-width="2px"/><text class="caption" text-anchor="middle" pointer-events="none" x="0" y="5" font-size="10px" fill="#FFFFFF" font-family="Helvetica Neue, Helvetica, Arial, sans-serif"> d7f5575…</text></g><g class="node" aria-label="graph-node3304" transform="translate(-387.0503615883134,273.4090731984269)"><circle class="b-outline" cx="0" cy="0" r="25" fill="#DA7194" stroke="#cc3c6c" stroke-width="2px"/><text class="caption" text-anchor="middle" pointer-events="none" x="0" y="5" font-size="10px" fill="#FFFFFF" font-family="Helvetica Neue, Helvetica, Arial, sans-serif"> 34bdd98…</text></g><g class="node" aria-label="graph-node3303" transform="translate(-251.60544135609467,327.85010817488353)"><circle class="b-outline" cx="0" cy="0" r="25" fill="#DA7194" stroke="#cc3c6c" stroke-width="2px"/><text class="caption" text-anchor="middle" pointer-events="none" x="0" y="5" font-size="10px" fill="#FFFFFF" font-family="Helvetica Neue, Helvetica, Arial, sans-serif"> db221b8…</text></g><g class="node" aria-label="graph-node3302" transform="translate(-155.79444911287453,215.03182605936416)"><circle class="b-outline" cx="0" cy="0" r="25" fill="#DA7194" stroke="#cc3c6c" stroke-width="2px"/><text class="caption" text-anchor="middle" pointer-events="none" x="0" y="5" font-size="10px" fill="#FFFFFF" font-family="Helvetica Neue, Helvetica, Arial, sans-serif"> 5624d86…</text></g><g class="node" aria-label="graph-node3301" transform="translate(-86.77507773925203,85.37163000650604)"><circle class="b-outline" cx="0" cy="0" r="25" fill="#DA7194" stroke="#cc3c6c" stroke-width="2px"/><text class="caption" text-anchor="middle" pointer-events="none" x="0" y="5" font-size="10px" fill="#FFFFFF" font-family="Helvetica Neue, Helvetica, Arial, sans-serif"> 92b5ca6…</text></g><g class="node" aria-label="graph-node3300" transform="translate(3.3903410255360455,-25.90289080691008)"><circle class="b-outline" cx="0" cy="0" r="25" fill="#DA7194" stroke="#cc3c6c" stroke-width="2px"/><text class="caption" text-anchor="middle" pointer-events="none" x="0" y="5" font-size="10px" fill="#FFFFFF" font-family="Helvetica Neue, Helvetica, Arial, sans-serif"> 6360146…</text></g></g></svg>