<svg xmlns="http://www.w3.org/2000/svg" width="1241.219482421875" height="1145.6689453125" viewBox="-959.0078125 -583.0693969726562 1241.219482421875 1145.6689453125"><title>Neo4j Graph Visualization</title><desc>Created using Neo4j (http://www.neo4j.com/)</desc><g class="layer relationships"><g class="relationship" transform="translate(-314.7969096942849 15.245186641293097) rotate(392.439758723206)"><path class="b-outline" fill="#A5ABB6" stroke="none" d="M 25 0.5 L 122.51483506237778 0.5 L 122.51483506237778 -0.5 L 25 -0.5 Z M 176.95233506237778 0.5 L 274.46717012475557 0.5 L 274.46717012475557 3.5 L 281.46717012475557 0 L 274.46717012475557 -3.5 L 274.46717012475557 -0.5 L 176.95233506237778 -0.5 Z"/><text text-anchor="middle" pointer-events="none" font-size="8px" fill="#000000" x="149.73358506237778" y="3" font-family="Helvetica Neue, Helvetica, Arial, sans-serif">COMMITTED</text></g><g class="relationship" transform="translate(-56.1521330096821 179.6380266862531) rotate(369.73810347682297)"><path class="b-outline" fill="#A5ABB6" stroke="none" d="M 25 0.5 L 50.14201200008715 0.5 L 50.14201200008715 -0.5 L 25 -0.5 Z M 91.73185575008715 0.5 L 116.8738677501743 0.5 L 116.8738677501743 3.5 L 123.8738677501743 0 L 116.8738677501743 -3.5 L 116.8738677501743 -0.5 L 91.73185575008715 -0.5 Z"/><text text-anchor="middle" pointer-events="none" font-size="8px" fill="#000000" x="70.93693387508715" y="3" font-family="Helvetica Neue, Helvetica, Arial, sans-serif">28/6/2023</text></g><g class="relationship" transform="translate(90.57664102086056 204.81927706009938) rotate(390.74971129569434)"><path class="b-outline" fill="#A5ABB6" stroke="none" d="M 25 0.5 L 41.91149698480763 0.5 L 41.91149698480763 -0.5 L 25 -0.5 Z M 87.91540323480763 0.5 L 104.82690021961525 0.5 L 104.82690021961525 3.5 L 111.82690021961525 0 L 104.82690021961525 -3.5 L 104.82690021961525 -0.5 L 87.91540323480763 -0.5 Z"/><text text-anchor="middle" pointer-events="none" font-size="8px" fill="#000000" x="64.91345010980763" y="3" font-family="Helvetica Neue, Helvetica, Arial, sans-serif">CHANGED</text></g><g class="relationship" transform="translate(-56.1521330096821 179.6380266862531) rotate(342.0917212288783)"><path class="b-outline" fill="#A5ABB6" stroke="none" d="M 25 0.5 L 76.99531191709121 0.5 L 76.99531191709121 -0.5 L 25 -0.5 Z M 118.58515566709121 0.5 L 170.58046758418243 0.5 L 170.58046758418243 3.5 L 177.58046758418243 0 L 170.58046758418243 -3.5 L 170.58046758418243 -0.5 L 118.58515566709121 -0.5 Z"/><text text-anchor="middle" pointer-events="none" font-size="8px" fill="#000000" x="97.79023379209121" y="3" font-family="Helvetica Neue, Helvetica, Arial, sans-serif">28/6/2023</text></g><g class="relationship" transform="translate(136.61330756342497 117.34572565890376) rotate(425.5579213559836)"><path class="b-outline" fill="#A5ABB6" stroke="none" d="M 25 0.5 L 59.96282109657281 0.5 L 59.96282109657281 -0.5 L 25 -0.5 Z M 105.96672734657281 0.5 L 140.92954844314562 0.5 L 140.92954844314562 3.5 L 147.92954844314562 0 L 140.92954844314562 -3.5 L 140.92954844314562 -0.5 L 105.96672734657281 -0.5 Z"/><text text-anchor="middle" pointer-events="none" font-size="8px" fill="#000000" x="82.96477422157281" y="3" font-family="Helvetica Neue, Helvetica, Arial, sans-serif">CHANGED</text></g><g class="relationship" transform="translate(-56.1521330096821 179.6380266862531) rotate(396.5731301832009)"><path class="b-outline" fill="#A5ABB6" stroke="none" d="M 25 0.5 L 78.71224969149938 0.5 L 78.71224969149938 -0.5 L 25 -0.5 Z M 120.30209344149938 0.5 L 174.01434313299876 0.5 L 174.01434313299876 3.5 L 181.01434313299876 0 L 174.01434313299876 -3.5 L 174.01434313299876 -0.5 L 120.30209344149938 -0.5 Z"/><text text-anchor="middle" pointer-events="none" font-size="8px" fill="#000000" x="99.50717156649938" y="3" font-family="Helvetica Neue, Helvetica, Arial, sans-serif">28/6/2023</text></g><g class="relationship" transform="translate(109.29736720756463 302.3913258451117) rotate(456.64667708301835)"><path class="b-outline" fill="#A5ABB6" stroke="none" d="M 25 0.5 L 62.53272346756894 0.5 L 62.53272346756894 -0.5 L 25 -0.5 Z M 108.53662971756894 0.5 L 146.06935318513789 0.5 L 146.06935318513789 3.5 L 153.06935318513789 0 L 146.06935318513789 -3.5 L 146.06935318513789 -0.5 L 108.53662971756894 -0.5 Z"/><text text-anchor="middle" pointer-events="none" font-size="8px" fill="#000000" x="85.53467659256894" y="3" transform="rotate(180 85.53467659256894 0)" font-family="Helvetica Neue, Helvetica, Arial, sans-serif">CHANGED</text></g><g class="relationship" transform="translate(-56.1521330096821 179.6380266862531) rotate(449.6721352199048)"><path class="b-outline" fill="#A5ABB6" stroke="none" d="M 25 0.5 L 62.025766931995236 0.5 L 62.025766931995236 -0.5 L 25 -0.5 Z M 103.61561068199524 0.5 L 140.64137761399047 0.5 L 140.64137761399047 3.5 L 147.64137761399047 0 L 140.64137761399047 -3.5 L 140.64137761399047 -0.5 L 103.61561068199524 -0.5 Z"/><text text-anchor="middle" pointer-events="none" font-size="8px" fill="#000000" x="82.82068880699524" y="3" font-family="Helvetica Neue, Helvetica, Arial, sans-serif">28/6/2023</text></g><g class="relationship" transform="translate(-55.16422920807985 352.2765777417321) rotate(401.43713590166874)"><path class="b-outline" fill="#A5ABB6" stroke="none" d="M 25 0.5 L 69.43916455633165 0.5 L 69.43916455633165 -0.5 L 25 -0.5 Z M 115.44307080633165 0.5 L 159.8822353626633 0.5 L 159.8822353626633 3.5 L 166.8822353626633 0 L 159.8822353626633 -3.5 L 159.8822353626633 -0.5 L 115.44307080633165 -0.5 Z"/><text text-anchor="middle" pointer-events="none" font-size="8px" fill="#000000" x="92.44111768133165" y="3" font-family="Helvetica Neue, Helvetica, Arial, sans-serif">CHANGED</text></g><g class="relationship" transform="translate(-314.7969096942849 15.245186641293097) rotate(235.3006455161496)"><path class="b-outline" fill="#A5ABB6" stroke="none" d="M 25 0.5 L 65.42052562542818 0.5 L 65.42052562542818 -0.5 L 25 -0.5 Z M 119.85802562542818 0.5 L 160.27855125085637 0.5 L 160.27855125085637 3.5 L 167.27855125085637 0 L 160.27855125085637 -3.5 L 160.27855125085637 -0.5 L 119.85802562542818 -0.5 Z"/><text text-anchor="middle" pointer-events="none" font-size="8px" fill="#000000" x="92.63927562542818" y="3" transform="rotate(180 92.63927562542818 0)" font-family="Helvetica Neue, Helvetica, Arial, sans-serif">COMMITTED</text></g><g class="relationship" transform="translate(-424.2553707122092 -142.83671169850973) rotate(291.051637879306)"><path class="b-outline" fill="#A5ABB6" stroke="none" d="M 25 0.5 L 56.98897605843129 0.5 L 56.98897605843129 -0.5 L 25 -0.5 Z M 98.57881980843129 0.5 L 130.56779586686258 0.5 L 130.56779586686258 3.5 L 137.56779586686258 0 L 130.56779586686258 -3.5 L 130.56779586686258 -0.5 L 98.57881980843129 -0.5 Z"/><text text-anchor="middle" pointer-events="none" font-size="8px" fill="#000000" x="77.78389793343129" y="3" font-family="Helvetica Neue, Helvetica, Arial, sans-serif">15/6/2023</text></g><g class="relationship" transform="translate(-365.85952375708047 -294.55425620606854) rotate(283.92987068294804)"><path class="b-outline" fill="#A5ABB6" stroke="none" d="M 25 0.5 L 56.07144535503859 0.5 L 56.07144535503859 -0.5 L 25 -0.5 Z M 102.07535160503859 0.5 L 133.14679696007718 0.5 L 133.14679696007718 3.5 L 140.14679696007718 0 L 133.14679696007718 -3.5 L 133.14679696007718 -0.5 L 102.07535160503859 -0.5 Z"/><text text-anchor="middle" pointer-events="none" font-size="8px" fill="#000000" x="79.07339848003859" y="3" font-family="Helvetica Neue, Helvetica, Arial, sans-serif">CHANGED</text></g><g class="relationship" transform="translate(-314.7969096942849 15.245186641293097) rotate(181.26644533766859)"><path class="b-outline" fill="#A5ABB6" stroke="none" d="M 25 0.5 L 73.47849868830227 0.5 L 73.47849868830227 -0.5 L 25 -0.5 Z M 127.91599868830227 0.5 L 176.39449737660453 0.5 L 176.39449737660453 3.5 L 183.39449737660453 0 L 176.39449737660453 -3.5 L 176.39449737660453 -0.5 L 127.91599868830227 -0.5 Z"/><text text-anchor="middle" pointer-events="none" font-size="8px" fill="#000000" x="100.69724868830227" y="3" transform="rotate(180 100.69724868830227 0)" font-family="Helvetica Neue, Helvetica, Arial, sans-serif">COMMITTED</text></g><g class="relationship" transform="translate(-523.1405013955023 10.639284570680722) rotate(189.6122919109995)"><path class="b-outline" fill="#A5ABB6" stroke="none" d="M 25 0.5 L 125.25769019490329 0.5 L 125.25769019490329 -0.5 L 25 -0.5 Z M 166.8475339449033 0.5 L 267.1052241398066 0.5 L 267.1052241398066 3.5 L 274.1052241398066 0 L 267.1052241398066 -3.5 L 267.1052241398066 -0.5 L 166.8475339449033 -0.5 Z"/><text text-anchor="middle" pointer-events="none" font-size="8px" fill="#000000" x="146.0526120699033" y="3" transform="rotate(180 146.0526120699033 0)" font-family="Helvetica Neue, Helvetica, Arial, sans-serif">14/6/2023</text></g><g class="relationship" transform="translate(-818.046359004888 -39.30538737134553) rotate(489.42575826462655)"><path class="b-outline" fill="#A5ABB6" stroke="none" d="M 25 0.5 L 31.378658169157134 0.5 L 31.378658169157134 -0.5 L 25 -0.5 Z M 77.38256441915713 0.5 L 83.76122258831427 0.5 L 83.76122258831427 3.5 L 90.76122258831427 0 L 83.76122258831427 -3.5 L 83.76122258831427 -0.5 L 77.38256441915713 -0.5 Z"/><text text-anchor="middle" pointer-events="none" font-size="8px" fill="#000000" x="54.380611294157134" y="3" transform="rotate(180 54.380611294157134 0)" font-family="Helvetica Neue, Helvetica, Arial, sans-serif">CHANGED</text></g><g class="relationship" transform="translate(-314.7969096942849 15.245186641293097) rotate(355.52897003740395)"><path class="b-outline" fill="#A5ABB6" stroke="none" d="M 25 0.5 L 72.02518673945869 0.5 L 72.02518673945869 -0.5 L 25 -0.5 Z M 126.46268673945869 0.5 L 173.48787347891738 0.5 L 173.48787347891738 3.5 L 180.48787347891738 0 L 173.48787347891738 -3.5 L 173.48787347891738 -0.5 L 126.46268673945869 -0.5 Z"/><text text-anchor="middle" pointer-events="none" font-size="8px" fill="#000000" x="99.24393673945869" y="3" font-family="Helvetica Neue, Helvetica, Arial, sans-serif">COMMITTED</text></g><g class="relationship" transform="translate(-109.93436109236093 -0.7736250253656853) rotate(343.7498994269449)"><path class="b-outline" fill="#A5ABB6" stroke="none" d="M 25 0.5 L 85.78715779023926 0.5 L 85.78715779023926 -0.5 L 25 -0.5 Z M 127.37700154023926 0.5 L 188.16415933047853 0.5 L 188.16415933047853 3.5 L 195.16415933047853 0 L 188.16415933047853 -3.5 L 188.16415933047853 -0.5 L 127.37700154023926 -0.5 Z"/><text text-anchor="middle" pointer-events="none" font-size="8px" fill="#000000" x="106.58207966523926" y="3" font-family="Helvetica Neue, Helvetica, Arial, sans-serif">15/6/2023</text></g><g class="relationship" transform="translate(101.43409987054957 -62.38231567747188) rotate(341.97717467778375)"><path class="b-outline" fill="#A5ABB6" stroke="none" d="M 25 0.5 L 53.30260949067599 0.5 L 53.30260949067599 -0.5 L 25 -0.5 Z M 99.30651574067599 0.5 L 127.60912523135198 0.5 L 127.60912523135198 3.5 L 134.60912523135198 0 L 127.60912523135198 -3.5 L 127.60912523135198 -0.5 L 99.30651574067599 -0.5 Z"/><text text-anchor="middle" pointer-events="none" font-size="8px" fill="#000000" x="76.30456261567599" y="3" font-family="Helvetica Neue, Helvetica, Arial, sans-serif">CHANGED</text></g><g class="relationship" transform="translate(-314.7969096942849 15.245186641293097) rotate(258.8775220936829)"><path class="b-outline" fill="#A5ABB6" stroke="none" d="M 25 0.5 L 25.75094952123473 0.5 L 25.75094952123473 -0.5 L 25 -0.5 Z M 80.18844952123473 0.5 L 80.93939904246946 0.5 L 80.93939904246946 3.5 L 87.93939904246946 0 L 80.93939904246946 -3.5 L 80.93939904246946 -0.5 L 80.18844952123473 -0.5 Z"/><text text-anchor="middle" pointer-events="none" font-size="8px" fill="#000000" x="52.96969952123473" y="3" transform="rotate(180 52.96969952123473 0)" font-family="Helvetica Neue, Helvetica, Arial, sans-serif">COMMITTED</text></g><g class="relationship" transform="translate(-336.58370199177676 -95.57287839081302) rotate(180.14636341634457)"><path class="b-outline" fill="#A5ABB6" stroke="none" d="M 25 0.5 L 135.48495292290326 0.5 L 135.48495292290326 -0.5 L 25 -0.5 Z M 172.62557792290326 0.5 L 283.1105308458065 0.5 L 283.1105308458065 3.5 L 290.1105308458065 0 L 283.1105308458065 -3.5 L 283.1105308458065 -0.5 L 172.62557792290326 -0.5 Z"/><text text-anchor="middle" pointer-events="none" font-size="8px" fill="#000000" x="154.05526542290326" y="3" transform="rotate(180 154.05526542290326 0)" font-family="Helvetica Neue, Helvetica, Arial, sans-serif">8/6/2023</text></g><g class="relationship" transform="translate(-651.6932046970129 -96.37783477768751) rotate(521.063928464331)"><path class="b-outline" fill="#A5ABB6" stroke="none" d="M 25 0.5 L 61.43358605161701 0.5 L 61.43358605161701 -0.5 L 25 -0.5 Z M 107.43749230161701 0.5 L 143.87107835323403 0.5 L 143.87107835323403 3.5 L 150.87107835323403 0 L 143.87107835323403 -3.5 L 143.87107835323403 -0.5 L 107.43749230161701 -0.5 Z"/><text text-anchor="middle" pointer-events="none" font-size="8px" fill="#000000" x="84.43553917661701" y="3" transform="rotate(180 84.43553917661701 0)" font-family="Helvetica Neue, Helvetica, Arial, sans-serif">CHANGED</text></g><g class="relationship" transform="translate(-336.58370199177676 -95.57287839081302) rotate(330.6725300656169)"><path class="b-outline" fill="#A5ABB6" stroke="none" d="M 25 0.5 L 68.05620175772324 0.5 L 68.05620175772324 -0.5 L 25 -0.5 Z M 105.19682675772324 0.5 L 148.2530285154465 0.5 L 148.2530285154465 3.5 L 155.2530285154465 0 L 148.2530285154465 -3.5 L 148.2530285154465 -0.5 L 105.19682675772324 -0.5 Z"/><text text-anchor="middle" pointer-events="none" font-size="8px" fill="#000000" x="86.62651425772324" y="3" font-family="Helvetica Neue, Helvetica, Arial, sans-serif">8/6/2023</text></g><g class="relationship" transform="translate(-179.43288537811978 -183.86090207835014) rotate(333.1380952518514)"><path class="b-outline" fill="#A5ABB6" stroke="none" d="M 25 0.5 L 54.405221280698086 0.5 L 54.405221280698086 -0.5 L 25 -0.5 Z M 100.40912753069809 0.5 L 129.81434881139617 0.5 L 129.81434881139617 3.5 L 136.81434881139617 0 L 129.81434881139617 -3.5 L 129.81434881139617 -0.5 L 100.40912753069809 -0.5 Z"/><text text-anchor="middle" pointer-events="none" font-size="8px" fill="#000000" x="77.40717440569809" y="3" font-family="Helvetica Neue, Helvetica, Arial, sans-serif">CHANGED</text></g><g class="relationship" transform="translate(-336.58370199177676 -95.57287839081302) rotate(363.57411678076437)"><path class="b-outline" fill="#A5ABB6" stroke="none" d="M 25 0.5 L 63.01961705290326 0.5 L 63.01961705290326 -0.5 L 25 -0.5 Z M 100.16024205290326 0.5 L 138.1798591058065 0.5 L 138.1798591058065 3.5 L 145.1798591058065 0 L 138.1798591058065 -3.5 L 138.1798591058065 -0.5 L 100.16024205290326 -0.5 Z"/><text text-anchor="middle" pointer-events="none" font-size="8px" fill="#000000" x="81.58992955290326" y="3" font-family="Helvetica Neue, Helvetica, Arial, sans-serif">8/6/2023</text></g><g class="relationship" transform="translate(-166.73484406579092 -84.96392431840614) rotate(344.1838928853631)"><path class="b-outline" fill="#A5ABB6" stroke="none" d="M 25 0.5 L 52.490445482569356 0.5 L 52.490445482569356 -0.5 L 25 -0.5 Z M 98.49435173256936 0.5 L 125.98479721513871 0.5 L 125.98479721513871 3.5 L 132.9847972151387 0 L 125.98479721513871 -3.5 L 125.98479721513871 -0.5 L 98.49435173256936 -0.5 Z"/><text text-anchor="middle" pointer-events="none" font-size="8px" fill="#000000" x="75.49239860756936" y="3" font-family="Helvetica Neue, Helvetica, Arial, sans-serif">CHANGED</text></g><g class="relationship" transform="translate(-336.58370199177676 -95.57287839081302) rotate(293.4209799086766)"><path class="b-outline" fill="#A5ABB6" stroke="none" d="M 25 0.5 L 70.56119953403132 0.5 L 70.56119953403132 -0.5 L 25 -0.5 Z M 107.70182453403132 0.5 L 153.26302406806263 0.5 L 153.26302406806263 3.5 L 160.26302406806263 0 L 153.26302406806263 -3.5 L 153.26302406806263 -0.5 L 107.70182453403132 -0.5 Z"/><text text-anchor="middle" pointer-events="none" font-size="8px" fill="#000000" x="89.13151203403132" y="3" font-family="Helvetica Neue, Helvetica, Arial, sans-serif">8/6/2023</text></g><g class="relationship" transform="translate(-262.94462954294863 -265.57192278730304) rotate(195.72799299618703)"><path class="b-outline" fill="#A5ABB6" stroke="none" d="M 25 0.5 L 26.95702905176436 0.5 L 26.95702905176436 -0.5 L 25 -0.5 Z M 72.96093530176435 0.5 L 74.91796435352872 0.5 L 74.91796435352872 3.5 L 81.91796435352872 0 L 74.91796435352872 -3.5 L 74.91796435352872 -0.5 L 72.96093530176435 -0.5 Z"/><text text-anchor="middle" pointer-events="none" font-size="8px" fill="#000000" x="49.95898217676436" y="3" transform="rotate(180 49.95898217676436 0)" font-family="Helvetica Neue, Helvetica, Arial, sans-serif">CHANGED</text></g><g class="relationship" transform="translate(-314.7969096942849 15.245186641293097) rotate(518.5920123594371)"><path class="b-outline" fill="#A5ABB6" stroke="none" d="M 25 0.5 L 131.03078275872804 0.5 L 131.03078275872804 -0.5 L 25 -0.5 Z M 185.46828275872804 0.5 L 291.4990655174561 0.5 L 291.4990655174561 3.5 L 298.4990655174561 0 L 291.4990655174561 -3.5 L 291.4990655174561 -0.5 L 185.46828275872804 -0.5 Z"/><text text-anchor="middle" pointer-events="none" font-size="8px" fill="#000000" x="158.24953275872804" y="3" transform="rotate(180 158.24953275872804 0)" font-family="Helvetica Neue, Helvetica, Arial, sans-serif">COMMITTED</text></g><g class="relationship" transform="translate(-615.9761374896773 133.324474135919) rotate(196.80105088441968)"><path class="b-outline" fill="#A5ABB6" stroke="none" d="M 25 0.5 L 119.6429881203124 0.5 L 119.6429881203124 -0.5 L 25 -0.5 Z M 161.2328318703124 0.5 L 255.8758199906248 0.5 L 255.8758199906248 3.5 L 262.8758199906248 0 L 255.8758199906248 -3.5 L 255.8758199906248 -0.5 L 161.2328318703124 -0.5 Z"/><text text-anchor="middle" pointer-events="none" font-size="8px" fill="#000000" x="140.4379099953124" y="3" transform="rotate(180 140.4379099953124 0)" font-family="Helvetica Neue, Helvetica, Arial, sans-serif">14/6/2023</text></g><g class="relationship" transform="translate(-891.563746687889 50.11415391247331) rotate(465.0112743351274)"><path class="b-outline" fill="#A5ABB6" stroke="none" d="M 25 0.5 L 47.71180533830096 0.5 L 47.71180533830096 -0.5 L 25 -0.5 Z M 93.71571158830096 0.5 L 116.42751692660192 0.5 L 116.42751692660192 3.5 L 123.42751692660192 0 L 116.42751692660192 -3.5 L 116.42751692660192 -0.5 L 93.71571158830096 -0.5 Z"/><text text-anchor="middle" pointer-events="none" font-size="8px" fill="#000000" x="70.71375846330096" y="3" transform="rotate(180 70.71375846330096 0)" font-family="Helvetica Neue, Helvetica, Arial, sans-serif">CHANGED</text></g><g class="relationship" transform="translate(-314.7969096942849 15.245186641293097) rotate(226.67156387066944)"><path class="b-outline" fill="#A5ABB6" stroke="none" d="M 25 0.5 L 144.7522509640736 0.5 L 144.7522509640736 -0.5 L 25 -0.5 Z M 199.1897509640736 0.5 L 318.9420019281472 0.5 L 318.9420019281472 3.5 L 325.9420019281472 0 L 318.9420019281472 -3.5 L 318.9420019281472 -0.5 L 199.1897509640736 -0.5 Z"/><text text-anchor="middle" pointer-events="none" font-size="8px" fill="#000000" x="171.9710009640736" y="3" transform="rotate(180 171.9710009640736 0)" font-family="Helvetica Neue, Helvetica, Arial, sans-serif">COMMITTED</text></g><g class="relationship" transform="translate(-555.6061048371636 -240.04135873854995) rotate(316.89497461306973)"><path class="b-outline" fill="#A5ABB6" stroke="none" d="M 25 0.5 L 132.87690885721727 0.5 L 132.87690885721727 -0.5 L 25 -0.5 Z M 174.46675260721727 0.5 L 282.34366146443455 0.5 L 282.34366146443455 3.5 L 289.34366146443455 0 L 282.34366146443455 -3.5 L 282.34366146443455 -0.5 L 174.46675260721727 -0.5 Z"/><text text-anchor="middle" pointer-events="none" font-size="8px" fill="#000000" x="153.67183073221727" y="3" font-family="Helvetica Neue, Helvetica, Arial, sans-serif">15/6/2023</text></g><g class="relationship" transform="translate(-326.103060724377 -454.84426897449475) rotate(336.0558201373535)"><path class="b-outline" fill="#A5ABB6" stroke="none" d="M 25 0.5 L 50.62580910354956 0.5 L 50.62580910354956 -0.5 L 25 -0.5 Z M 96.62971535354956 0.5 L 122.25552445709911 0.5 L 122.25552445709911 3.5 L 129.2555244570991 0 L 122.25552445709911 -3.5 L 122.25552445709911 -0.5 L 96.62971535354956 -0.5 Z"/><text text-anchor="middle" pointer-events="none" font-size="8px" fill="#000000" x="73.62776222854956" y="3" font-family="Helvetica Neue, Helvetica, Arial, sans-serif">CHANGED</text></g><g class="relationship" transform="translate(-314.7969096942849 15.245186641293097) rotate(427.085046473493)"><path class="b-outline" fill="#A5ABB6" stroke="none" d="M 25 0.5 L 162.3395921987099 0.5 L 162.3395921987099 -0.5 L 25 -0.5 Z M 216.7770921987099 0.5 L 354.1166843974198 0.5 L 354.1166843974198 3.5 L 361.1166843974198 0 L 354.1166843974198 -3.5 L 354.1166843974198 -0.5 L 216.7770921987099 -0.5 Z"/><text text-anchor="middle" pointer-events="none" font-size="8px" fill="#000000" x="189.5583421987099" y="3" font-family="Helvetica Neue, Helvetica, Arial, sans-serif">COMMITTED</text></g><g class="relationship" transform="translate(-164.45683573674057 370.891016270289) rotate(391.5915269742219)"><path class="b-outline" fill="#A5ABB6" stroke="none" d="M 25 0.5 L 50.94404404495049 0.5 L 50.94404404495049 -0.5 L 25 -0.5 Z M 92.53388779495049 0.5 L 118.47793183990098 0.5 L 118.47793183990098 3.5 L 125.47793183990098 0 L 118.47793183990098 -3.5 L 118.47793183990098 -0.5 L 92.53388779495049 -0.5 Z"/><text text-anchor="middle" pointer-events="none" font-size="8px" fill="#000000" x="71.73896591995049" y="3" font-family="Helvetica Neue, Helvetica, Arial, sans-serif">28/6/2023</text></g><g class="relationship" transform="translate(-36.27906933388745 449.72037736619984) rotate(373.30124057717643)"><path class="b-outline" fill="#A5ABB6" stroke="none" d="M 25 0.5 L 37.70319780008067 0.5 L 37.70319780008067 -0.5 L 25 -0.5 Z M 83.70710405008067 0.5 L 96.41030185016135 0.5 L 96.41030185016135 3.5 L 103.41030185016135 0 L 96.41030185016135 -3.5 L 96.41030185016135 -0.5 L 83.70710405008067 -0.5 Z"/><text text-anchor="middle" pointer-events="none" font-size="8px" fill="#000000" x="60.70515092508067" y="3" font-family="Helvetica Neue, Helvetica, Arial, sans-serif">CHANGED</text></g><g class="relationship" transform="translate(-164.45683573674057 370.891016270289) rotate(425.1020835851347)"><path class="b-outline" fill="#A5ABB6" stroke="none" d="M 25 0.5 L 65.39525078770227 0.5 L 65.39525078770227 -0.5 L 25 -0.5 Z M 106.98509453770227 0.5 L 147.38034532540453 0.5 L 147.38034532540453 3.5 L 154.38034532540453 0 L 147.38034532540453 -3.5 L 147.38034532540453 -0.5 L 106.98509453770227 -0.5 Z"/><text text-anchor="middle" pointer-events="none" font-size="8px" fill="#000000" x="86.19017266270227" y="3" font-family="Helvetica Neue, Helvetica, Arial, sans-serif">28/6/2023</text></g><g class="relationship" transform="translate(-88.93720305783788 533.5996311900436) rotate(342.990920199584)"><path class="b-outline" fill="#A5ABB6" stroke="none" d="M 25 0.5 L 66.3723603546111 0.5 L 66.3723603546111 -0.5 L 25 -0.5 Z M 112.3762666046111 0.5 L 153.7486269592222 0.5 L 153.7486269592222 3.5 L 160.7486269592222 0 L 153.7486269592222 -3.5 L 153.7486269592222 -0.5 L 112.3762666046111 -0.5 Z"/><text text-anchor="middle" pointer-events="none" font-size="8px" fill="#000000" x="89.3743134796111" y="3" font-family="Helvetica Neue, Helvetica, Arial, sans-serif">CHANGED</text></g><g class="relationship" transform="translate(-164.45683573674057 370.891016270289) rotate(361.150448102573)"><path class="b-outline" fill="#A5ABB6" stroke="none" d="M 25 0.5 L 78.62878196362209 0.5 L 78.62878196362209 -0.5 L 25 -0.5 Z M 120.21862571362209 0.5 L 173.84740767724418 0.5 L 173.84740767724418 3.5 L 180.84740767724418 0 L 173.84740767724418 -3.5 L 173.84740767724418 -0.5 L 120.21862571362209 -0.5 Z"/><text text-anchor="middle" pointer-events="none" font-size="8px" fill="#000000" x="99.42370383862209" y="3" font-family="Helvetica Neue, Helvetica, Arial, sans-serif">28/6/2023</text></g><g class="relationship" transform="translate(41.34907752851308 375.02397072158095) rotate(328.9968777889651)"><path class="b-outline" fill="#A5ABB6" stroke="none" d="M 25 0.5 L 70.80885986208077 0.5 L 70.80885986208077 -0.5 L 25 -0.5 Z M 116.81276611208077 0.5 L 162.62162597416153 0.5 L 162.62162597416153 3.5 L 169.62162597416153 0 L 162.62162597416153 -3.5 L 162.62162597416153 -0.5 L 116.81276611208077 -0.5 Z"/><text text-anchor="middle" pointer-events="none" font-size="8px" fill="#000000" x="93.81081298708077" y="3" font-family="Helvetica Neue, Helvetica, Arial, sans-serif">CHANGED</text></g><g class="relationship" transform="translate(-164.45683573674057 370.891016270289) rotate(332.9081389787575)"><path class="b-outline" fill="#A5ABB6" stroke="none" d="M 25 0.5 L 75.3095080674866 0.5 L 75.3095080674866 -0.5 L 25 -0.5 Z M 116.8993518174866 0.5 L 167.2088598849732 0.5 L 167.2088598849732 3.5 L 174.2088598849732 0 L 167.2088598849732 -3.5 L 167.2088598849732 -0.5 L 116.8993518174866 -0.5 Z"/><text text-anchor="middle" pointer-events="none" font-size="8px" fill="#000000" x="96.1044299424866" y="3" font-family="Helvetica Neue, Helvetica, Arial, sans-serif">28/6/2023</text></g><g class="relationship" transform="translate(12.894331351001162 280.1676268423868) rotate(358.4188117653216)"><path class="b-outline" fill="#A5ABB6" stroke="none" d="M 25 0.5 L 71.1715268898005 0.5 L 71.1715268898005 -0.5 L 25 -0.5 Z M 117.1754331398005 0.5 L 163.346960029601 0.5 L 163.346960029601 3.5 L 170.346960029601 0 L 163.346960029601 -3.5 L 163.346960029601 -0.5 L 117.1754331398005 -0.5 Z"/><text text-anchor="middle" pointer-events="none" font-size="8px" fill="#000000" x="94.1734800148005" y="3" font-family="Helvetica Neue, Helvetica, Arial, sans-serif">CHANGED</text></g><g class="relationship" transform="translate(-314.7969096942849 15.245186641293097) rotate(291.0587303947401)"><path class="b-outline" fill="#A5ABB6" stroke="none" d="M 25 0.5 L 166.6243737985848 0.5 L 166.6243737985848 -0.5 L 25 -0.5 Z M 221.0618737985848 0.5 L 362.6862475971696 0.5 L 362.6862475971696 3.5 L 369.6862475971696 0 L 362.6862475971696 -3.5 L 362.6862475971696 -0.5 L 221.0618737985848 -0.5 Z"/><text text-anchor="middle" pointer-events="none" font-size="8px" fill="#000000" x="193.8431237985848" y="3" font-family="Helvetica Neue, Helvetica, Arial, sans-serif">COMMITTED</text></g><g class="relationship" transform="translate(-172.97638538172936 -353.08099071519905) rotate(265.7737197343032)"><path class="b-outline" fill="#A5ABB6" stroke="none" d="M 25 0.5 L 58.11282927036851 0.5 L 58.11282927036851 -0.5 L 25 -0.5 Z M 99.70267302036851 0.5 L 132.81550229073702 0.5 L 132.81550229073702 3.5 L 139.81550229073702 0 L 132.81550229073702 -3.5 L 132.81550229073702 -0.5 L 99.70267302036851 -0.5 Z"/><text text-anchor="middle" pointer-events="none" font-size="8px" fill="#000000" x="78.90775114536851" y="3" transform="rotate(180 78.90775114536851 0)" font-family="Helvetica Neue, Helvetica, Arial, sans-serif">15/6/2023</text></g><g class="relationship" transform="translate(-185.12256844532652 -517.4483233343467) rotate(346.22370272743274)"><path class="b-outline" fill="#A5ABB6" stroke="none" d="M 25 0.5 L 50.390527486315605 0.5 L 50.390527486315605 -0.5 L 25 -0.5 Z M 96.3944337363156 0.5 L 121.78496122263121 0.5 L 121.78496122263121 3.5 L 128.7849612226312 0 L 121.78496122263121 -3.5 L 121.78496122263121 -0.5 L 96.3944337363156 -0.5 Z"/><text text-anchor="middle" pointer-events="none" font-size="8px" fill="#000000" x="73.3924806113156" y="3" font-family="Helvetica Neue, Helvetica, Arial, sans-serif">CHANGED</text></g><g class="relationship" transform="translate(-56.1521330096821 179.6380266862531) rotate(479.5224545370563)"><path class="b-outline" fill="#A5ABB6" stroke="none" d="M 24.018736134675446,-6.953439040707552 L 24.277555179777966,-5.987513214418485 A 327.2932500497147 327.2932500497147 0 0 1 98.05268410231963,-16.95705133103803 L 98.0192749271467,-17.95649308872794 A 328.2932500497147 328.2932500497147 0 0 0 24.018736134675446,-6.953439040707552 Z M 114.70642527353456,-18.089940352283236 L 114.68900443516362,-17.090092106602697 A 327.2932500497147 327.2932500497147 0 0 1 188.63013354227957,-7.301841987484313 L 187.90011984443487,-4.392017250329323 L 195.541393545282,-6.083447482039181 L 189.60348513940585,-11.181608303690966 L 188.87347144156115,-8.271783566535976 A 328.2932500497147 328.2932500497147 0 0 0 114.70642527353456,-18.089940352283236"/><text text-anchor="middle" pointer-events="none" font-size="8px" fill="#000000" x="106.36600042128907" y="-14.629279236098057" transform="rotate(180 106.36600042128907 -17.629279236098057)" font-family="Helvetica Neue, Helvetica, Arial, sans-serif">DF</text></g><g class="relationship" transform="translate(-56.1521330096821 179.6380266862531) rotate(479.5224545370563)"><path class="b-outline" fill="#A5ABB6" stroke="none" d="M 24.018736134675446,6.953439040707552 L 24.277555179777966,5.987513214418485 A 327.2932500497147 327.2932500497147 0 0 0 98.05268410231977,16.95705133103803 L 98.01927492714685,17.95649308872794 A 328.2932500497147 328.2932500497147 0 0 1 24.018736134675446,6.953439040707552 Z M 114.7064252735346,18.089940352283236 L 114.68900443516365,17.090092106602697 A 327.2932500497147 327.2932500497147 0 0 0 188.63013354227957,7.301841987484313 L 187.90011984443487,4.392017250329323 L 195.541393545282,6.083447482039181 L 189.60348513940585,11.181608303690966 L 188.87347144156115,8.271783566535976 A 328.2932500497147 328.2932500497147 0 0 1 114.7064252735346,18.089940352283236"/><text text-anchor="middle" pointer-events="none" font-size="8px" fill="#000000" x="106.36600042128917" y="20.629279236098057" transform="rotate(180 106.36600042128917 17.629279236098057)" font-family="Helvetica Neue, Helvetica, Arial, sans-serif">DF</text></g><g class="relationship" transform="translate(-56.1521330096821 179.6380266862531) rotate(165.65707955843015)"><path class="b-outline" fill="#A5ABB6" stroke="none" d="M 6.953439040707552 24.018736134675446 L 17.306200844808384 62.65576918623819 A 17.916697508022974 17.916697508022974 0 1 1 -17.306200844808384 62.65576918623819 L -8.765172356425198 30.780216918698923 L -4.901469051268926 31.815493099109005 L -6.4704761275630185 24.148145657226706 L -11.662949835292403 30.00375978339136 L -7.79924653013613 31.039035963801442 L -16.340275018519314 62.91458823134071 A 16.916697508022974 16.916697508022974 0 1 0 16.340275018519314 62.91458823134071 L 5.987513214418485 24.277555179777966 Z"/><text text-anchor="middle" pointer-events="none" font-size="8px" fill="#000000" x="0" y="94.20964923467838" transform="rotate(180 0 91.20964923467838)" font-family="Helvetica Neue, Helvetica, Arial, sans-serif">DF</text></g><g class="relationship" transform="translate(-56.1521330096821 179.6380266862531) rotate(208.87440039365424)"><path class="b-outline" fill="#A5ABB6" stroke="none" d="M 6.953439040707552 24.018736134675446 L 17.306200844808384 62.65576918623819 A 17.916697508022974 17.916697508022974 0 1 1 -17.306200844808384 62.65576918623819 L -8.765172356425198 30.780216918698923 L -4.901469051268926 31.815493099109005 L -6.4704761275630185 24.148145657226706 L -11.662949835292403 30.00375978339136 L -7.79924653013613 31.039035963801442 L -16.340275018519314 62.91458823134071 A 16.916697508022974 16.916697508022974 0 1 0 16.340275018519314 62.91458823134071 L 5.987513214418485 24.277555179777966 Z"/><text text-anchor="middle" pointer-events="none" font-size="8px" fill="#000000" x="0" y="94.20964923467838" transform="rotate(180 0 91.20964923467838)" font-family="Helvetica Neue, Helvetica, Arial, sans-serif">DF</text></g><g class="relationship" transform="translate(-424.2553707122092 -142.83671169850973) rotate(216.50287964058526)"><path class="b-outline" fill="#A5ABB6" stroke="none" d="M 25 0.5 L 69.8713327586858 0.5 L 69.8713327586858 -0.5 L 25 -0.5 Z M 86.5353952586858 0.5 L 131.4067280173716 0.5 L 131.4067280173716 3.5 L 138.4067280173716 0 L 131.4067280173716 -3.5 L 131.4067280173716 -0.5 L 86.5353952586858 -0.5 Z"/><text text-anchor="middle" pointer-events="none" font-size="8px" fill="#000000" x="78.2033640086858" y="3" transform="rotate(180 78.2033640086858 0)" font-family="Helvetica Neue, Helvetica, Arial, sans-serif">DF</text></g><g class="relationship" transform="translate(-424.2553707122092 -142.83671169850973) rotate(484.76973542788755)"><path class="b-outline" fill="#A5ABB6" stroke="none" d="M 25 0.5 L 145.66588014918275 0.5 L 145.66588014918275 -0.5 L 25 -0.5 Z M 183.52134889918275 0.5 L 304.1872290483655 0.5 L 304.1872290483655 3.5 L 311.1872290483655 0 L 304.1872290483655 -3.5 L 304.1872290483655 -0.5 L 183.52134889918275 -0.5 Z"/><text text-anchor="middle" pointer-events="none" font-size="8px" fill="#000000" x="164.59361452418275" y="3" transform="rotate(180 164.59361452418275 0)" font-family="Helvetica Neue, Helvetica, Arial, sans-serif">PARENT</text></g><g class="relationship" transform="translate(-523.1405013955023 10.639284570680722) rotate(487.11471956197215)"><path class="b-outline" fill="#A5ABB6" stroke="none" d="M 24.018736134675446,6.953439040707552 L 24.277555179777966,5.987513214418485 A 198.40581681863026 198.40581681863026 0 0 0 65.08468833241194,12.467652533726351 L 65.03154437187581,13.466239394975048 A 199.40581681863026 199.40581681863026 0 0 1 24.018736134675446,6.953439040707552 Z M 81.73154849315702,13.654618065207274 L 81.70094362235155,12.655086503983227 A 198.40581681863026 198.40581681863026 0 0 0 122.64386871785419,7.097100685497937 L 121.93297560634923,4.1825456621685095 L 129.56297929087367,5.924109262541281 L 123.5917261998608,10.983174049937174 L 122.88083308835584,8.068619026607747 A 199.40581681863026 199.40581681863026 0 0 1 81.73154849315702,13.654618065207274"/><text text-anchor="middle" pointer-events="none" font-size="8px" fill="#000000" x="73.38521309972275" y="16.2353741080272" transform="rotate(180 73.38521309972275 13.235374108027202)" font-family="Helvetica Neue, Helvetica, Arial, sans-serif">DF</text></g><g class="relationship" transform="translate(-523.1405013955023 10.639284570680722) rotate(330.34589350925717)"><path class="b-outline" fill="#A5ABB6" stroke="none" d="M 24.018736134675446,-6.953439040707552 L 24.277555179777966,-5.987513214418485 A 317.3243471456006 317.3243471456006 0 0 1 84.92938660516539,-16.072394613392873 L 84.8617026934712,-17.070101428092357 A 318.3243471456006 318.3243471456006 0 0 0 24.018736134675446,-6.953439040707552 Z M 122.7530491278866,-17.380121073606915 L 122.7016992717456,-16.381440347711873 A 317.3243471456006 317.3243471456006 0 0 1 183.5104249768962,-7.290325663540918 L 182.7814867220033,-4.380231331641399 L 190.42213479381056,-6.0744854574407645 L 184.4823426500867,-11.170451439406945 L 183.75340439519383,-8.260357107507424 A 318.3243471456006 318.3243471456006 0 0 0 122.7530491278866,-17.380121073606915"/><text text-anchor="middle" pointer-events="none" font-size="8px" fill="#000000" x="103.80684957890936" y="-14.289440785147121" font-family="Helvetica Neue, Helvetica, Arial, sans-serif">PARENT</text></g><g class="relationship" transform="translate(-336.58370199177676 -95.57287839081302) rotate(208.32912557409225)"><path class="b-outline" fill="#A5ABB6" stroke="none" d="M 25 0.5 L 37.96804765345905 0.5 L 37.96804765345905 -0.5 L 25 -0.5 Z M 54.63211015345905 0.5 L 67.6001578069181 0.5 L 67.6001578069181 3.5 L 74.6001578069181 0 L 67.6001578069181 -3.5 L 67.6001578069181 -0.5 L 54.63211015345905 -0.5 Z"/><text text-anchor="middle" pointer-events="none" font-size="8px" fill="#000000" x="46.30007890345905" y="3" transform="rotate(180 46.30007890345905 0)" font-family="Helvetica Neue, Helvetica, Arial, sans-serif">DF</text></g><g class="relationship" transform="translate(-336.58370199177676 -95.57287839081302) rotate(510.34589350925717)"><path class="b-outline" fill="#A5ABB6" stroke="none" d="M 24.018736134675446,-6.953439040707552 L 24.277555179777966,-5.987513214418485 A 317.3243471456006 317.3243471456006 0 0 1 95.49414036252404,-16.61236990269998 L 95.45974968487378,-17.61177836838897 A 318.3243471456006 318.3243471456006 0 0 0 24.018736134675446,-6.953439040707552 Z M 112.1475577513984,-17.748314776514576 L 112.1295245154644,-16.748477388535036 A 317.3243471456006 317.3243471456006 0 0 1 183.5104249768962,-7.290325663540918 L 182.7814867220033,-4.380231331641399 L 190.42213479381056,-6.0744854574407645 L 184.4823426500867,-11.170451439406945 L 183.75340439519383,-8.260357107507424 A 318.3243471456006 318.3243471456006 0 0 0 112.1475577513984,-17.748314776514576"/><text text-anchor="middle" pointer-events="none" font-size="8px" fill="#000000" x="103.80684957890936" y="-14.289440785147121" transform="rotate(180 103.80684957890936 -17.28944078514712)" font-family="Helvetica Neue, Helvetica, Arial, sans-serif">DF</text></g><g class="relationship" transform="translate(-615.9761374896773 133.324474135919) rotate(307.11471956197215)"><path class="b-outline" fill="#A5ABB6" stroke="none" d="M 24.018736134675446,6.953439040707552 L 24.277555179777966,5.987513214418485 A 198.40581681863026 198.40581681863026 0 0 0 54.55050344253198,11.625193407301992 L 54.44426534867459,12.6195341272836 A 199.40581681863026 199.40581681863026 0 0 1 24.018736134675446,6.953439040707552 Z M 92.33523307383633,13.046950196288151 L 92.25145179749839,12.05046602795673 A 198.40581681863026 198.40581681863026 0 0 0 122.64386871785419,7.097100685497937 L 121.93297560634923,4.1825456621685095 L 129.56297929087367,5.924109262541281 L 123.5917261998608,10.983174049937174 L 122.88083308835584,8.068619026607747 A 199.40581681863026 199.40581681863026 0 0 1 92.33523307383633,13.046950196288151"/><text text-anchor="middle" pointer-events="none" font-size="8px" fill="#000000" x="73.38521309972275" y="16.2353741080272" font-family="Helvetica Neue, Helvetica, Arial, sans-serif">PARENT</text></g><g class="relationship" transform="translate(-555.6061048371636 -240.04135873854995) rotate(343.5413703672193)"><path class="b-outline" fill="#A5ABB6" stroke="none" d="M 25 0.5 L 187.656978853289 0.5 L 187.656978853289 -0.5 L 25 -0.5 Z M 204.321041353289 0.5 L 366.978020206578 0.5 L 366.978020206578 3.5 L 373.978020206578 0 L 366.978020206578 -3.5 L 366.978020206578 -0.5 L 204.321041353289 -0.5 Z"/><text text-anchor="middle" pointer-events="none" font-size="8px" fill="#000000" x="195.989010103289" y="3" font-family="Helvetica Neue, Helvetica, Arial, sans-serif">DF</text></g><g class="relationship" transform="translate(-555.6061048371636 -240.04135873854995) rotate(459.18474128627565)"><path class="b-outline" fill="#A5ABB6" stroke="none" d="M 25 0.5 L 166.6797654766131 0.5 L 166.6797654766131 -0.5 L 25 -0.5 Z M 204.5352342266131 0.5 L 346.2149997032262 0.5 L 346.2149997032262 3.5 L 353.2149997032262 0 L 346.2149997032262 -3.5 L 346.2149997032262 -0.5 L 204.5352342266131 -0.5 Z"/><text text-anchor="middle" pointer-events="none" font-size="8px" fill="#000000" x="185.6074998516131" y="3" transform="rotate(180 185.6074998516131 0)" font-family="Helvetica Neue, Helvetica, Arial, sans-serif">PARENT</text></g><g class="relationship" transform="translate(-164.45683573674057 370.891016270289) rotate(395.7630712145875)"><path class="b-outline" fill="#A5ABB6" stroke="none" d="M 6.953439040707552 24.018736134675446 L 17.306200844808384 62.65576918623819 A 17.916697508022974 17.916697508022974 0 1 1 -17.306200844808384 62.65576918623819 L -8.765172356425198 30.780216918698923 L -4.901469051268926 31.815493099109005 L -6.4704761275630185 24.148145657226706 L -11.662949835292403 30.00375978339136 L -7.79924653013613 31.039035963801442 L -16.340275018519314 62.91458823134071 A 16.916697508022974 16.916697508022974 0 1 0 16.340275018519314 62.91458823134071 L 5.987513214418485 24.277555179777966 Z"/><text text-anchor="middle" pointer-events="none" font-size="8px" fill="#000000" x="0" y="94.20964923467838" font-family="Helvetica Neue, Helvetica, Arial, sans-serif">DF</text></g><g class="relationship" transform="translate(-164.45683573674057 370.891016270289) rotate(456.42405884404025)"><path class="b-outline" fill="#A5ABB6" stroke="none" d="M 6.953439040707552 24.018736134675446 L 17.306200844808384 62.65576918623819 A 17.916697508022974 17.916697508022974 0 1 1 -17.306200844808384 62.65576918623819 L -8.765172356425198 30.780216918698923 L -4.901469051268926 31.815493099109005 L -6.4704761275630185 24.148145657226706 L -11.662949835292403 30.00375978339136 L -7.79924653013613 31.039035963801442 L -16.340275018519314 62.91458823134071 A 16.916697508022974 16.916697508022974 0 1 0 16.340275018519314 62.91458823134071 L 5.987513214418485 24.277555179777966 Z"/><text text-anchor="middle" pointer-events="none" font-size="8px" fill="#000000" x="0" y="94.20964923467838" transform="rotate(180 0 91.20964923467838)" font-family="Helvetica Neue, Helvetica, Arial, sans-serif">DF</text></g><g class="relationship" transform="translate(-172.97638538172936 -353.08099071519905) rotate(500.08089083267447)"><path class="b-outline" fill="#A5ABB6" stroke="none" d="M 25 0.5 L 141.3890728579294 0.5 L 141.3890728579294 -0.5 L 25 -0.5 Z M 179.2445416079294 0.5 L 295.6336144658588 0.5 L 295.6336144658588 3.5 L 302.6336144658588 0 L 295.6336144658588 -3.5 L 295.6336144658588 -0.5 L 179.2445416079294 -0.5 Z"/><text text-anchor="middle" pointer-events="none" font-size="8px" fill="#000000" x="160.3168072329294" y="3" transform="rotate(180 160.3168072329294 0)" font-family="Helvetica Neue, Helvetica, Arial, sans-serif">PARENT</text></g></g><g class="layer nodes"><g class="node" aria-label="graph-node821" transform="translate(-314.7969096942849,15.245186641293097)"><circle class="b-outline" cx="0" cy="0" r="25" fill="#C990C0" stroke="#b261a5" stroke-width="2px"/><text class="caption" text-anchor="middle" pointer-events="none" x="0" y="5" font-size="10px" fill="#FFFFFF" font-family="Helvetica Neue, Helvetica, Arial, sans-serif"> ivan-mis…</text></g><g class="node" aria-label="graph-node3287" transform="translate(208.16690884445774,274.7773326140042)"><circle class="b-outline" cx="0" cy="0" r="25" fill="#FFC454" stroke="#d7a013" stroke-width="2px"/><text class="caption" text-anchor="middle" pointer-events="none" x="0" y="5" font-size="10px" fill="#2A2C34" font-family="Helvetica Neue, Helvetica, Arial, sans-serif"> compan…</text></g><g class="node" aria-label="graph-node2642" transform="translate(88.6864838232533,479.2638393396954)"><circle class="b-outline" cx="0" cy="0" r="25" fill="#604A0E" stroke="#423204" stroke-width="2px"/><text class="caption" text-anchor="middle" pointer-events="none" x="0" y="5" font-size="10px" fill="#FFFFFF" font-family="Helvetica Neue, Helvetica, Arial, sans-serif"> course/t…</text></g><g class="node" aria-label="graph-node3332" transform="translate(-326.103060724377,-454.84426897449475)"><circle class="b-outline" cx="0" cy="0" r="25" fill="#604A0E" stroke="#423204" stroke-width="2px"/><text class="caption" text-anchor="middle" pointer-events="none" x="0" y="5" font-size="10px" fill="#FFFFFF" font-family="Helvetica Neue, Helvetica, Arial, sans-serif"> compan…</text></g><g class="node" aria-label="graph-node3334" transform="translate(-891.563746687889,50.11415391247331)"><circle class="b-outline" cx="0" cy="0" r="25" fill="#FFC454" stroke="#d7a013" stroke-width="2px"/><text class="caption" text-anchor="middle" pointer-events="none" x="0" y="5" font-size="10px" fill="#2A2C34" font-family="Helvetica Neue, Helvetica, Arial, sans-serif"> compan…</text></g><g class="node" aria-label="graph-node3326" transform="translate(253.211737712454,-111.7647164721791)"><circle class="b-outline" cx="0" cy="0" r="25" fill="#604A0E" stroke="#423204" stroke-width="2px"/><text class="caption" text-anchor="middle" pointer-events="none" x="0" y="5" font-size="10px" fill="#FFFFFF" font-family="Helvetica Neue, Helvetica, Arial, sans-serif"> </text></g><g class="node" aria-label="graph-node3335" transform="translate(-818.046359004888,-39.30538737134553)"><circle class="b-outline" cx="0" cy="0" r="25" fill="#FFC454" stroke="#d7a013" stroke-width="2px"/><text class="caption" text-anchor="middle" pointer-events="none" x="0" y="5" font-size="10px" fill="#2A2C34" font-family="Helvetica Neue, Helvetica, Arial, sans-serif"> compan…</text></g><g class="node" aria-label="graph-node2111" transform="translate(-35.07860405022848,-256.975366745502)"><circle class="b-outline" cx="0" cy="0" r="25" fill="#604A0E" stroke="#423204" stroke-width="2px"/><text class="caption" text-anchor="middle" pointer-events="none" x="0" y="5" font-size="10px" fill="#FFFFFF" font-family="Helvetica Neue, Helvetica, Arial, sans-serif"> course/t…</text></g><g class="node" aria-label="graph-node2517" transform="translate(-14.731128279120774,-128.02279725016905)"><circle class="b-outline" cx="0" cy="0" r="25" fill="#604A0E" stroke="#423204" stroke-width="2px"/><text class="caption" text-anchor="middle" pointer-events="none" x="0" y="5" font-size="10px" fill="#FFFFFF" font-family="Helvetica Neue, Helvetica, Arial, sans-serif"> compan…</text></g><g class="node" aria-label="graph-node3333" transform="translate(-365.85952375708047,-294.55425620606854)"><circle class="b-outline" cx="0" cy="0" r="25" fill="#604A0E" stroke="#423204" stroke-width="2px"/><text class="caption" text-anchor="middle" pointer-events="none" x="0" y="5" font-size="10px" fill="#FFFFFF" font-family="Helvetica Neue, Helvetica, Arial, sans-serif"> compan…</text></g><g class="node" aria-label="graph-node3324" transform="translate(-930.0078256632704,193.47656381385343)"><circle class="b-outline" cx="0" cy="0" r="25" fill="#FFC454" stroke="#d7a013" stroke-width="2px"/><text class="caption" text-anchor="middle" pointer-events="none" x="0" y="5" font-size="10px" fill="#2A2C34" font-family="Helvetica Neue, Helvetica, Arial, sans-serif"> compan…</text></g><g class="node" aria-label="graph-node3331" transform="translate(-185.12256844532652,-517.4483233343467)"><circle class="b-outline" cx="0" cy="0" r="25" fill="#604A0E" stroke="#423204" stroke-width="2px"/><text class="caption" text-anchor="middle" pointer-events="none" x="0" y="5" font-size="10px" fill="#FFFFFF" font-family="Helvetica Neue, Helvetica, Arial, sans-serif"> compan…</text></g><g class="node" aria-label="graph-node2648" transform="translate(-35.76155829235652,-554.0693957426006)"><circle class="b-outline" cx="0" cy="0" r="25" fill="#604A0E" stroke="#423204" stroke-width="2px"/><text class="caption" text-anchor="middle" pointer-events="none" x="0" y="5" font-size="10px" fill="#FFFFFF" font-family="Helvetica Neue, Helvetica, Arial, sans-serif"> compan…</text></g><g class="node" aria-label="graph-node769" transform="translate(-56.1521330096821,179.6380266862531)"><circle class="b-outline" cx="0" cy="0" r="25" fill="#DA7194" stroke="#cc3c6c" stroke-width="2px"/><text class="caption" text-anchor="middle" pointer-events="none" x="0" y="5" font-size="10px" fill="#FFFFFF" font-family="Helvetica Neue, Helvetica, Arial, sans-serif"> 3fdef24a…</text></g><g class="node" aria-label="graph-node2644" transform="translate(90.57664102086056,204.81927706009938)"><circle class="b-outline" cx="0" cy="0" r="25" fill="#FFC454" stroke="#d7a013" stroke-width="2px"/><text class="caption" text-anchor="middle" pointer-events="none" x="0" y="5" font-size="10px" fill="#2A2C34" font-family="Helvetica Neue, Helvetica, Arial, sans-serif"> compan…</text></g><g class="node" aria-label="graph-node3291" transform="translate(136.61330756342497,117.34572565890376)"><circle class="b-outline" cx="0" cy="0" r="25" fill="#FFC454" stroke="#d7a013" stroke-width="2px"/><text class="caption" text-anchor="middle" pointer-events="none" x="0" y="5" font-size="10px" fill="#2A2C34" font-family="Helvetica Neue, Helvetica, Arial, sans-serif"> compan…</text></g><g class="node" aria-label="graph-node3292" transform="translate(109.29736720756463,302.3913258451117)"><circle class="b-outline" cx="0" cy="0" r="25" fill="#604A0E" stroke="#423204" stroke-width="2px"/><text class="caption" text-anchor="middle" pointer-events="none" x="0" y="5" font-size="10px" fill="#FFFFFF" font-family="Helvetica Neue, Helvetica, Arial, sans-serif"> course/t…</text></g><g class="node" aria-label="graph-node2645" transform="translate(-55.16422920807985,352.2765777417321)"><circle class="b-outline" cx="0" cy="0" r="25" fill="#604A0E" stroke="#423204" stroke-width="2px"/><text class="caption" text-anchor="middle" pointer-events="none" x="0" y="5" font-size="10px" fill="#FFFFFF" font-family="Helvetica Neue, Helvetica, Arial, sans-serif"> course/t…</text></g><g class="node" aria-label="graph-node814" transform="translate(-424.2553707122092,-142.83671169850973)"><circle class="b-outline" cx="0" cy="0" r="25" fill="#DA7194" stroke="#cc3c6c" stroke-width="2px"/><text class="caption" text-anchor="middle" pointer-events="none" x="0" y="5" font-size="10px" fill="#FFFFFF" font-family="Helvetica Neue, Helvetica, Arial, sans-serif"> 4b1897c…</text></g><g class="node" aria-label="graph-node816" transform="translate(-523.1405013955023,10.639284570680722)"><circle class="b-outline" cx="0" cy="0" r="25" fill="#DA7194" stroke="#cc3c6c" stroke-width="2px"/><text class="caption" text-anchor="middle" pointer-events="none" x="0" y="5" font-size="10px" fill="#FFFFFF" font-family="Helvetica Neue, Helvetica, Arial, sans-serif"> d961e1e…</text></g><g class="node" aria-label="graph-node811" transform="translate(-109.93436109236093,-0.7736250253656853)"><circle class="b-outline" cx="0" cy="0" r="25" fill="#DA7194" stroke="#cc3c6c" stroke-width="2px"/><text class="caption" text-anchor="middle" pointer-events="none" x="0" y="5" font-size="10px" fill="#FFFFFF" font-family="Helvetica Neue, Helvetica, Arial, sans-serif"> a466fae…</text></g><g class="node" aria-label="graph-node3330" transform="translate(101.43409987054957,-62.38231567747188)"><circle class="b-outline" cx="0" cy="0" r="25" fill="#604A0E" stroke="#423204" stroke-width="2px"/><text class="caption" text-anchor="middle" pointer-events="none" x="0" y="5" font-size="10px" fill="#FFFFFF" font-family="Helvetica Neue, Helvetica, Arial, sans-serif"> </text></g><g class="node" aria-label="graph-node817" transform="translate(-336.58370199177676,-95.57287839081302)"><circle class="b-outline" cx="0" cy="0" r="25" fill="#DA7194" stroke="#cc3c6c" stroke-width="2px"/><text class="caption" text-anchor="middle" pointer-events="none" x="0" y="5" font-size="10px" fill="#FFFFFF" font-family="Helvetica Neue, Helvetica, Arial, sans-serif"> 1b09fb9…</text></g><g class="node" aria-label="graph-node3339" transform="translate(-651.6932046970129,-96.37783477768751)"><circle class="b-outline" cx="0" cy="0" r="25" fill="#FFC454" stroke="#d7a013" stroke-width="2px"/><text class="caption" text-anchor="middle" pointer-events="none" x="0" y="5" font-size="10px" fill="#2A2C34" font-family="Helvetica Neue, Helvetica, Arial, sans-serif"> compan…</text></g><g class="node" aria-label="graph-node3341" transform="translate(-179.43288537811978,-183.86090207835014)"><circle class="b-outline" cx="0" cy="0" r="25" fill="#604A0E" stroke="#423204" stroke-width="2px"/><text class="caption" text-anchor="middle" pointer-events="none" x="0" y="5" font-size="10px" fill="#FFFFFF" font-family="Helvetica Neue, Helvetica, Arial, sans-serif"> course/t…</text></g><g class="node" aria-label="graph-node3337" transform="translate(-166.73484406579092,-84.96392431840614)"><circle class="b-outline" cx="0" cy="0" r="25" fill="#604A0E" stroke="#423204" stroke-width="2px"/><text class="caption" text-anchor="middle" pointer-events="none" x="0" y="5" font-size="10px" fill="#FFFFFF" font-family="Helvetica Neue, Helvetica, Arial, sans-serif"> compan…</text></g><g class="node" aria-label="graph-node3338" transform="translate(-262.94462954294863,-265.57192278730304)"><circle class="b-outline" cx="0" cy="0" r="25" fill="#604A0E" stroke="#423204" stroke-width="2px"/><text class="caption" text-anchor="middle" pointer-events="none" x="0" y="5" font-size="10px" fill="#FFFFFF" font-family="Helvetica Neue, Helvetica, Arial, sans-serif"> compan…</text></g><g class="node" aria-label="graph-node815" transform="translate(-615.9761374896773,133.324474135919)"><circle class="b-outline" cx="0" cy="0" r="25" fill="#DA7194" stroke="#cc3c6c" stroke-width="2px"/><text class="caption" text-anchor="middle" pointer-events="none" x="0" y="5" font-size="10px" fill="#FFFFFF" font-family="Helvetica Neue, Helvetica, Arial, sans-serif"> c4b0cd8…</text></g><g class="node" aria-label="graph-node813" transform="translate(-555.6061048371636,-240.04135873854995)"><circle class="b-outline" cx="0" cy="0" r="25" fill="#DA7194" stroke="#cc3c6c" stroke-width="2px"/><text class="caption" text-anchor="middle" pointer-events="none" x="0" y="5" font-size="10px" fill="#FFFFFF" font-family="Helvetica Neue, Helvetica, Arial, sans-serif"> f3d5abb…</text></g><g class="node" aria-label="graph-node790" transform="translate(-164.45683573674057,370.891016270289)"><circle class="b-outline" cx="0" cy="0" r="25" fill="#DA7194" stroke="#cc3c6c" stroke-width="2px"/><text class="caption" text-anchor="middle" pointer-events="none" x="0" y="5" font-size="10px" fill="#FFFFFF" font-family="Helvetica Neue, Helvetica, Arial, sans-serif"> 3fdef24a…</text></g><g class="node" aria-label="graph-node3294" transform="translate(-36.27906933388745,449.72037736619984)"><circle class="b-outline" cx="0" cy="0" r="25" fill="#604A0E" stroke="#423204" stroke-width="2px"/><text class="caption" text-anchor="middle" pointer-events="none" x="0" y="5" font-size="10px" fill="#FFFFFF" font-family="Helvetica Neue, Helvetica, Arial, sans-serif"> course/t…</text></g><g class="node" aria-label="graph-node2647" transform="translate(-88.93720305783788,533.5996311900436)"><circle class="b-outline" cx="0" cy="0" r="25" fill="#604A0E" stroke="#423204" stroke-width="2px"/><text class="caption" text-anchor="middle" pointer-events="none" x="0" y="5" font-size="10px" fill="#FFFFFF" font-family="Helvetica Neue, Helvetica, Arial, sans-serif"> course/t…</text></g><g class="node" aria-label="graph-node2646" transform="translate(41.34907752851308,375.02397072158095)"><circle class="b-outline" cx="0" cy="0" r="25" fill="#FFC454" stroke="#d7a013" stroke-width="2px"/><text class="caption" text-anchor="middle" pointer-events="none" x="0" y="5" font-size="10px" fill="#2A2C34" font-family="Helvetica Neue, Helvetica, Arial, sans-serif"> compan…</text></g><g class="node" aria-label="graph-node3293" transform="translate(12.894331351001162,280.1676268423868)"><circle class="b-outline" cx="0" cy="0" r="25" fill="#FFC454" stroke="#d7a013" stroke-width="2px"/><text class="caption" text-anchor="middle" pointer-events="none" x="0" y="5" font-size="10px" fill="#2A2C34" font-family="Helvetica Neue, Helvetica, Arial, sans-serif"> compan…</text></g><g class="node" aria-label="graph-node812" transform="translate(-172.97638538172936,-353.08099071519905)"><circle class="b-outline" cx="0" cy="0" r="25" fill="#DA7194" stroke="#cc3c6c" stroke-width="2px"/><text class="caption" text-anchor="middle" pointer-events="none" x="0" y="5" font-size="10px" fill="#FFFFFF" font-family="Helvetica Neue, Helvetica, Arial, sans-serif"> ddf755b…</text></g></g></svg>